<svg width="49" height="54" viewBox="0 0 49 54" fill="none" xmlns="http://www.w3.org/2000/svg">
<path d="M11.7218 50.2767V49.9266H12.4868V50.2767L12.2484 50.3541V51.7415H13.2811V50.3541L13.0426 50.2767V49.9266H13.8076V50.2767L13.5692 50.3541V53.5172L13.8076 53.5946V53.942H13.0426V53.5946L13.2811 53.5172V52.1689H12.2484V53.5172L12.4868 53.5946V53.942H11.7218V53.5946L11.9602 53.5172V50.3541L11.7218 50.2767Z" fill="#999591"/>
<path d="M15.0831 53.942C15.0743 53.861 15.0675 53.7885 15.0626 53.7242C15.0577 53.6598 15.0543 53.5955 15.0523 53.5311C14.9968 53.6652 14.927 53.7777 14.8432 53.8677C14.7603 53.9559 14.6716 54 14.577 54C14.4122 54 14.2869 53.9244 14.2011 53.7737C14.1152 53.6211 14.0723 53.4069 14.0723 53.1311C14.0723 52.848 14.1328 52.6302 14.2537 52.4776C14.3756 52.3233 14.5423 52.2459 14.7539 52.2459H15.0509V51.8985C15.0509 51.7239 15.0216 51.5858 14.9631 51.485C14.9046 51.3819 14.8232 51.3302 14.7188 51.3302C14.6467 51.3302 14.5828 51.3477 14.5272 51.3828C14.4726 51.4174 14.4283 51.4656 14.3941 51.5263L14.3634 51.8404H14.1411V51.2613C14.2132 51.1529 14.3005 51.0664 14.4029 51.0021C14.5053 50.9359 14.6165 50.9026 14.7364 50.9026C14.9158 50.9026 15.0611 50.9895 15.1723 51.1623C15.2835 51.3351 15.339 51.5822 15.339 51.9039V53.3408C15.339 53.3795 15.339 53.4173 15.339 53.4537C15.34 53.4906 15.3415 53.5275 15.3434 53.5644L15.4605 53.5945V53.942H15.0831ZM14.6194 53.545C14.7149 53.545 14.8022 53.5018 14.8812 53.4154C14.9602 53.329 15.0168 53.2251 15.0509 53.1036V52.6127H14.7437C14.6257 52.6127 14.5321 52.6644 14.4629 52.767C14.3946 52.8701 14.3605 52.9952 14.3605 53.1423C14.3605 53.2728 14.3819 53.3732 14.4248 53.4429C14.4678 53.5109 14.5326 53.545 14.6194 53.545Z" fill="#999591"/>
<path d="M15.7004 53.5946L15.9388 53.5172V51.3855L15.7004 51.3081V50.958H16.2269V53.5172L16.4654 53.5946V53.942H15.7004V53.5946ZM16.2269 50.1939H15.9388V49.6399H16.2269V50.1939Z" fill="#999591"/>
<path d="M16.6862 51.3081V50.958H17.1821L17.2099 51.3909C17.2547 51.2384 17.3098 51.1191 17.3752 51.0327C17.4415 50.9458 17.5171 50.9026 17.6019 50.9026C17.6243 50.9026 17.6472 50.9067 17.6706 50.9139C17.695 50.9193 17.7135 50.926 17.7262 50.9332L17.6882 51.4377L17.5244 51.4215C17.4483 51.4215 17.3844 51.4553 17.3327 51.5232C17.2811 51.5898 17.2411 51.6834 17.2128 51.8049V53.5172L17.4512 53.5946V53.942H16.6862V53.5946L16.9247 53.5172V51.3855L16.6862 51.3081Z" fill="#999591"/>
<path d="M18.6082 53.5752C18.7038 53.5752 18.7877 53.5203 18.8598 53.4096C18.9329 53.2976 18.9695 53.1608 18.9695 52.9988H19.2284L19.2313 53.0154C19.2362 53.2728 19.1753 53.5018 19.0485 53.7021C18.9227 53.9005 18.776 54 18.6082 54C18.3781 54 18.2021 53.8583 18.0802 53.5752C17.9593 53.2922 17.8988 52.9362 17.8988 52.5078V52.3922C17.8988 51.9674 17.9598 51.6137 18.0816 51.3302C18.2036 51.0453 18.3791 50.9026 18.6082 50.9026C18.735 50.9026 18.8486 50.9422 18.949 51.0214C19.0504 51.1006 19.1343 51.2091 19.2006 51.3468L19.2138 52.0087H18.9842L18.9212 51.5398C18.8871 51.4773 18.8432 51.4269 18.7896 51.3882C18.736 51.3495 18.6755 51.3302 18.6082 51.3302C18.4571 51.3302 18.3488 51.4332 18.2835 51.6393C18.2191 51.8431 18.187 52.0943 18.187 52.3922V52.5078C18.187 52.8133 18.2191 53.0676 18.2835 53.2719C18.3479 53.474 18.4561 53.5752 18.6082 53.5752Z" fill="#999591"/>
<path d="M20.6443 53.5009C20.5946 53.6607 20.5302 53.784 20.4512 53.8704C20.3732 53.9568 20.283 54 20.1806 54C20.009 54 19.8749 53.896 19.7784 53.6881C19.6818 53.4807 19.6336 53.1572 19.6336 52.7175V51.3855L19.4522 51.3081V50.958H19.9217V52.7229C19.9217 53.0411 19.9466 53.2598 19.9963 53.3795C20.0461 53.4992 20.1236 53.5585 20.2289 53.5585C20.3313 53.5585 20.4156 53.5203 20.4819 53.4429C20.5492 53.3637 20.6 53.2525 20.6341 53.109V51.3855L20.422 51.3081V50.958H20.9222V53.5172L21.1036 53.5945V53.942H20.6633L20.6443 53.5009Z" fill="#999591"/>
<path d="M21.835 50.238V50.958H22.1348V51.3608H21.835V53.1725C21.835 53.3124 21.8501 53.4105 21.8803 53.4677C21.9115 53.5248 21.9525 53.5532 22.0032 53.5532C22.0285 53.5532 22.0568 53.5496 22.088 53.5424C22.1202 53.5329 22.147 53.5239 22.1685 53.5144L22.208 53.8871C22.1807 53.9199 22.1407 53.9465 22.088 53.9667C22.0354 53.9888 21.9827 54 21.9301 54C21.813 54 21.7199 53.9338 21.6507 53.8015C21.5814 53.667 21.5468 53.4578 21.5468 53.1725V51.3608H21.2967V50.958H21.5468V50.238H21.835Z" fill="#999591"/>
<path d="M23.64 51.8958H23.4235L23.3767 51.5372C23.3416 51.4746 23.2972 51.4251 23.2436 51.3882C23.1909 51.3495 23.1309 51.3302 23.0637 51.3302C22.9613 51.3302 22.8852 51.3724 22.8355 51.457C22.7857 51.5416 22.7609 51.6438 22.7609 51.7635C22.7609 51.8809 22.7828 51.9737 22.8267 52.0421C22.8706 52.11 22.9598 52.1708 23.0944 52.2239C23.2943 52.3049 23.443 52.4151 23.5405 52.5551C23.638 52.6928 23.6868 52.8786 23.6868 53.1122C23.6868 53.3768 23.6297 53.591 23.5156 53.7548C23.4025 53.9181 23.2543 54 23.071 54C22.951 54 22.8433 53.9744 22.7477 53.9226C22.6521 53.8695 22.5668 53.793 22.4917 53.694L22.4903 53.0127H22.7068L22.7609 53.4128C22.794 53.4695 22.8389 53.5109 22.8954 53.5365C22.953 53.5626 23.0115 53.5752 23.071 53.5752C23.1734 53.5752 23.2533 53.5365 23.3109 53.4596C23.3694 53.3804 23.3986 53.2773 23.3986 53.1504C23.3986 53.0311 23.3742 52.9326 23.3255 52.8557C23.2777 52.7783 23.1865 52.7112 23.0519 52.6541C22.8599 52.5749 22.715 52.4673 22.6175 52.3314C22.52 52.1955 22.4713 52.0115 22.4713 51.7797C22.4713 51.5372 22.5259 51.3301 22.6351 51.1591C22.7453 50.9881 22.8881 50.9026 23.0637 50.9026C23.1836 50.9026 23.2914 50.9324 23.3869 50.9913C23.4825 51.0498 23.562 51.1317 23.6253 51.2366L23.64 51.8958Z" fill="#999591"/>
<path d="M24.6798 52.8611C24.6798 52.6365 24.7141 52.4408 24.7823 52.2734C24.8515 52.1046 24.9543 51.9354 25.0908 51.7662C25.015 51.584 24.9584 51.4224 24.9212 51.2806C24.8841 51.1371 24.8656 50.9904 24.8656 50.8396C24.8656 50.5287 24.9129 50.2898 25.0076 50.1224C25.1032 49.9532 25.2343 49.8685 25.401 49.8685C25.5552 49.8685 25.6805 49.9522 25.7768 50.1196C25.8734 50.287 25.9217 50.4882 25.9217 50.7236C25.9217 50.904 25.896 51.0602 25.8442 51.1925C25.7935 51.323 25.7179 51.457 25.6175 51.5952L25.4581 51.8157L25.9555 52.9438C25.9954 52.8241 26.0266 52.6918 26.049 52.5465C26.0716 52.4011 26.0827 52.2477 26.0827 52.0862H26.3401C26.3401 52.3269 26.3211 52.5501 26.283 52.7562C26.245 52.9623 26.19 53.1468 26.1177 53.3106L26.3884 53.9285L26.3855 53.942H26.0504L25.9262 53.6607C25.8482 53.771 25.7619 53.8555 25.6672 53.9145C25.5728 53.9716 25.4748 54 25.3732 54C25.1617 54 24.9928 53.8942 24.8672 53.6827C24.7424 53.4712 24.6798 53.1977 24.6798 52.8611ZM25.3732 53.5752C25.4434 53.5752 25.5128 53.5531 25.5808 53.509C25.6491 53.4631 25.7136 53.3979 25.774 53.3133L25.2459 52.1136L25.1874 52.1937C25.0987 52.3188 25.0397 52.438 25.0104 52.5519C24.9821 52.6662 24.9681 52.7693 24.9681 52.8611C24.9681 53.069 25.0026 53.2395 25.0718 53.3741C25.1413 53.5082 25.2416 53.5752 25.3732 53.5752ZM25.1539 50.8338C25.1539 50.9314 25.167 51.0336 25.1934 51.1402C25.2198 51.2446 25.2593 51.3599 25.3118 51.485L25.5138 51.2226C25.5692 51.1529 25.6068 51.0777 25.6263 50.9967C25.6467 50.9139 25.657 50.823 25.657 50.7236C25.657 50.6115 25.6332 50.512 25.5854 50.4256C25.5385 50.3392 25.4771 50.296 25.401 50.296C25.322 50.296 25.2612 50.3487 25.2181 50.4536C25.1753 50.5562 25.1539 50.683 25.1539 50.8338Z" fill="#999591"/>
<path d="M28.85 51.1123H28.6322L28.5782 50.5386C28.5342 50.4688 28.4756 50.4112 28.4026 50.3649C28.3294 50.319 28.2444 50.296 28.1481 50.296C27.9949 50.296 27.8774 50.3577 27.7956 50.481C27.7135 50.602 27.6726 50.7613 27.6726 50.958C27.6726 51.1326 27.714 51.2788 27.797 51.3967C27.8807 51.5124 28.0159 51.6145 28.2021 51.7027C28.4264 51.8076 28.5965 51.962 28.7126 52.1658C28.8296 52.3701 28.8881 52.623 28.8881 52.9245C28.8881 53.2481 28.8179 53.5082 28.6776 53.7048C28.538 53.9015 28.3553 54 28.1291 54C27.9652 54 27.8194 53.9496 27.6916 53.8484C27.5649 53.7471 27.4616 53.6148 27.3815 53.451V52.7036H27.5979L27.6536 53.28C27.7092 53.3664 27.7756 53.4375 27.8524 53.4924C27.9295 53.5478 28.0218 53.5752 28.1291 53.5752C28.2742 53.5752 28.3888 53.5171 28.4728 53.4015C28.5575 53.2858 28.6 53.1284 28.6 52.9299C28.6 52.7459 28.5634 52.5924 28.4904 52.4695C28.4171 52.3444 28.288 52.2396 28.1027 52.155C27.8774 52.0538 27.7014 51.9048 27.5746 51.7081C27.4478 51.5115 27.3846 51.264 27.3846 50.9661C27.3846 50.652 27.4552 50.391 27.5965 50.1831C27.738 49.9734 27.9217 49.8685 28.1481 49.8685C28.2972 49.8685 28.4328 49.9171 28.5546 50.0148C28.6776 50.1106 28.7761 50.2272 28.85 50.3649V51.1123Z" fill="#999591"/>
<path d="M29.1207 53.5946L29.3591 53.5172V50.067L29.1207 49.99V49.6399H29.6474V51.3554C29.7018 51.2118 29.7687 51.1006 29.8476 51.0214C29.9266 50.9422 30.0144 50.9026 30.111 50.9026C30.2806 50.9026 30.4123 50.9985 30.5058 51.1897C30.5995 51.381 30.6464 51.6749 30.6464 52.0722V53.5172L30.8847 53.5946V53.942H30.1198V53.5946L30.3581 53.5172V52.0668C30.3581 51.8202 30.3298 51.6384 30.2734 51.5205C30.2178 51.4031 30.1343 51.3441 30.0232 51.3441C29.9442 51.3441 29.8721 51.3801 29.8067 51.4517C29.7423 51.5214 29.6892 51.6173 29.6474 51.7383V53.5172L29.8857 53.5946V53.942H29.1207V53.5946Z" fill="#999591"/>
<path d="M32.1267 53.942C32.1179 53.861 32.111 53.7885 32.1062 53.7242C32.1012 53.6598 32.0979 53.5955 32.096 53.5311C32.0403 53.6652 31.9706 53.7777 31.8866 53.8677C31.8039 53.9559 31.7151 54 31.6205 54C31.4556 54 31.3305 53.9244 31.2447 53.7737C31.1588 53.6211 31.116 53.4069 31.116 53.1311C31.116 52.848 31.1764 52.6302 31.2972 52.4776C31.4192 52.3233 31.586 52.2459 31.7974 52.2459H32.0945V51.8985C32.0945 51.7239 32.0653 51.5858 32.0068 51.485C31.9483 51.3819 31.8667 51.3302 31.7625 51.3302C31.6902 51.3302 31.6264 51.3477 31.5708 51.3828C31.5163 51.4174 31.4718 51.4656 31.4378 51.5263L31.4069 51.8404H31.1847V51.2613C31.2568 51.1529 31.3441 51.0664 31.4464 51.0021C31.5489 50.9359 31.66 50.9026 31.7798 50.9026C31.9594 50.9026 32.1048 50.9895 32.2159 51.1623C32.3269 51.3351 32.3826 51.5822 32.3826 51.9039V53.3408C32.3826 53.3795 32.3826 53.4173 32.3826 53.4537C32.3835 53.4906 32.385 53.5275 32.3869 53.5644L32.5039 53.5945V53.942H32.1267ZM31.6631 53.545C31.7584 53.545 31.8457 53.5018 31.9247 53.4154C32.0037 53.329 32.0603 53.2251 32.0945 53.1036V52.6127H31.7872C31.6692 52.6127 31.5758 52.6644 31.5065 52.767C31.4383 52.8701 31.404 52.9952 31.404 53.1423C31.404 53.2728 31.4254 53.3732 31.4685 53.4429C31.5113 53.5109 31.5762 53.545 31.6631 53.545Z" fill="#999591"/>
<path d="M33.2632 51.3081L33.0729 51.3635L33.3992 53.0622L33.4254 53.2773H33.4342L33.462 53.0622L33.7779 51.3635L33.5864 51.3081V50.958H34.1977V51.3081L34.0676 51.3495L33.5367 53.942H33.3188L32.782 51.3495L32.6516 51.3081V50.958H33.2632V51.3081Z" fill="#999591"/>
<path d="M35.0959 54C34.8756 54 34.7001 53.8623 34.5693 53.5865C34.4396 53.3088 34.3747 52.9492 34.3747 52.5078V52.3868C34.3747 51.962 34.4415 51.6087 34.5752 51.3274C34.7098 51.0444 34.8687 50.9026 35.0521 50.9026C35.2645 50.9026 35.4256 51.0242 35.5348 51.2667C35.6449 51.5097 35.7001 51.8333 35.7001 52.2378V52.5771H34.6732L34.6687 52.5906C34.6718 52.8777 34.7103 53.114 34.7843 53.2994C34.8585 53.4834 34.9622 53.5752 35.0959 53.5752C35.1934 53.5752 35.2788 53.5496 35.3518 53.4983C35.4261 53.4447 35.4898 53.3723 35.5436 53.28L35.6561 53.6332C35.5995 53.7363 35.5245 53.8236 35.4308 53.8951C35.3383 53.9649 35.2265 54 35.0959 54ZM35.0521 51.3302C34.9556 51.3302 34.873 51.4076 34.8048 51.5619C34.7365 51.7145 34.6946 51.9066 34.6789 52.1383L34.682 52.1523H35.4118V52.0803C35.4118 51.867 35.3816 51.6888 35.3212 51.5452C35.2607 51.4021 35.1711 51.3302 35.0521 51.3302Z" fill="#999591"/>
<path d="M37.1965 51.8958H36.9798L36.9331 51.5372C36.8979 51.4746 36.8537 51.4251 36.7999 51.3882C36.7474 51.3495 36.6874 51.3302 36.6201 51.3302C36.5176 51.3302 36.4415 51.3724 36.3918 51.457C36.342 51.5416 36.3173 51.6438 36.3173 51.7635C36.3173 51.8809 36.3392 51.9737 36.383 52.0421C36.427 52.11 36.5162 52.1708 36.6508 52.2239C36.8506 52.3049 36.9993 52.4151 37.0968 52.5551C37.1943 52.6928 37.2431 52.8786 37.2431 53.1122C37.2431 53.3768 37.186 53.591 37.0721 53.7548C36.9588 53.9181 36.8106 54 36.6272 54C36.5074 54 36.3996 53.9744 36.304 53.9226C36.2086 53.8695 36.1232 53.793 36.048 53.694L36.0466 53.0127H36.2631L36.3173 53.4128C36.3504 53.4695 36.3953 53.5109 36.4519 53.5365C36.5093 53.5626 36.5678 53.5752 36.6272 53.5752C36.7298 53.5752 36.8097 53.5365 36.8672 53.4596C36.9258 53.3804 36.955 53.2773 36.955 53.1504C36.955 53.0311 36.9305 52.9326 36.8818 52.8557C36.8342 52.7783 36.7428 52.7112 36.6082 52.6541C36.4163 52.5749 36.2714 52.4673 36.1739 52.3314C36.0764 52.1955 36.0276 52.0115 36.0276 51.7797C36.0276 51.5372 36.0823 51.3301 36.1915 51.1591C36.3016 50.9881 36.4446 50.9026 36.6201 50.9026C36.74 50.9026 36.8477 50.9324 36.9434 50.9913C37.0388 51.0498 37.1184 51.1317 37.1817 51.2366L37.1965 51.8958Z" fill="#999591"/>
<path d="M17.7101 3.668L17.868 3.62663L18.6126 0H18.8598L19.5911 3.62663L19.7476 3.668V4.01549H19.1362V3.668L19.2971 3.6156L19.1567 2.87649H18.304L18.1591 3.6156L18.32 3.668V4.01549H17.7101V3.668ZM18.3932 2.42143H19.069L18.7384 0.697747H18.7296L18.3932 2.42143Z" fill="#999591"/>
<path d="M20.3342 1.38171L20.1528 1.44238L20.3591 2.92888L20.3927 3.29017H20.4015L20.4424 2.92888L20.7584 1.03145H20.9895L21.3069 2.92888L21.3523 3.33154H21.361L21.4034 2.92888L21.598 1.44238L21.4137 1.38171V1.03145H22.0163V1.38171L21.8788 1.42032L21.4795 4.01549H21.2469L20.9398 2.19804L20.874 1.6961L20.8652 1.69886L20.8037 2.19804L20.5024 4.01549H20.2699L19.8705 1.42032L19.7316 1.38171V1.03145H20.3342V1.38171Z" fill="#999591"/>
<path d="M22.9729 4.07341C22.7526 4.07341 22.577 3.93551 22.4464 3.65973C22.3167 3.38209 22.2518 3.02265 22.2518 2.58139V2.46004C22.2518 2.03533 22.3186 1.68231 22.4522 1.40101C22.5868 1.11787 22.7457 0.976292 22.9291 0.976292C23.1416 0.976292 23.3025 1.09764 23.4117 1.34034C23.522 1.58303 23.577 1.90662 23.577 2.31111V2.65034H22.5502L22.5458 2.66412C22.5488 2.95095 22.5873 3.1872 22.6614 3.37291C22.7355 3.55676 22.8394 3.64869 22.9729 3.64869C23.0705 3.64869 23.1558 3.62295 23.2289 3.57147C23.303 3.51815 23.3669 3.44553 23.4205 3.3536L23.5332 3.70661C23.4766 3.80957 23.4015 3.8969 23.3079 3.96861C23.2152 4.03847 23.1036 4.07341 22.9729 4.07341ZM22.9291 1.40377C22.8325 1.40377 22.7501 1.48099 22.6819 1.63543C22.6136 1.78803 22.5717 1.98017 22.5561 2.21183L22.559 2.22562H23.2889V2.15391C23.2889 1.94064 23.2587 1.76229 23.1982 1.61888C23.1377 1.47547 23.048 1.40377 22.9291 1.40377Z" fill="#999591"/>
<path d="M25.0735 1.96914H24.8568L24.8102 1.61061C24.7749 1.5481 24.7307 1.49845 24.6769 1.46168C24.6244 1.42307 24.5644 1.40377 24.4971 1.40377C24.3946 1.40377 24.3187 1.44606 24.2688 1.53063C24.2191 1.61521 24.1943 1.71725 24.1943 1.83675C24.1943 1.95443 24.2162 2.04728 24.2602 2.1153C24.304 2.18333 24.3932 2.244 24.5278 2.29733C24.7276 2.37822 24.8763 2.48854 24.9738 2.62827C25.0713 2.76617 25.1201 2.95186 25.1201 3.18537C25.1201 3.45013 25.0632 3.66432 24.9491 3.82796C24.8358 3.99159 24.6877 4.07341 24.5043 4.07341C24.3844 4.07341 24.2766 4.04767 24.181 3.99619C24.0856 3.94287 24.0002 3.86657 23.9251 3.76728L23.9236 3.08609H24.1401L24.1943 3.48598C24.2274 3.54297 24.2723 3.58434 24.329 3.61008C24.3863 3.63582 24.4448 3.64869 24.5043 3.64869C24.6068 3.64869 24.6867 3.61008 24.7443 3.53286C24.8028 3.4538 24.832 3.35084 24.832 3.22398C24.832 3.10447 24.8075 3.0061 24.7588 2.92888C24.7112 2.85166 24.6199 2.78455 24.4855 2.72756C24.2933 2.6485 24.1484 2.54094 24.0509 2.40488C23.9534 2.26883 23.9046 2.08497 23.9046 1.85331C23.9046 1.61061 23.9593 1.40377 24.0685 1.23278C24.1786 1.06179 24.3216 0.976292 24.4971 0.976292C24.617 0.976292 24.7248 1.00571 24.8204 1.06455C24.916 1.12338 24.9954 1.2052 25.0587 1.31L25.0735 1.96914Z" fill="#999591"/>
<path d="M25.3908 2.49589C25.3908 2.05463 25.4541 1.69151 25.5809 1.40652C25.7076 1.1197 25.8799 0.976292 26.0973 0.976292C26.3156 0.976292 26.4883 1.11878 26.6151 1.40377C26.7428 1.68875 26.8068 2.05279 26.8068 2.49589V2.55657C26.8068 3.00151 26.7433 3.36555 26.6165 3.64869C26.4897 3.93184 26.3178 4.07341 26.1001 4.07341C25.8808 4.07341 25.7076 3.93184 25.5809 3.64869C25.4541 3.36371 25.3908 2.99967 25.3908 2.55657V2.49589ZM25.6789 2.55657C25.6789 2.87281 25.7141 3.13389 25.7842 3.33981C25.8554 3.54573 25.9607 3.64869 26.1001 3.64869C26.2367 3.64869 26.3406 3.54573 26.4117 3.33981C26.4831 3.13389 26.5185 2.87281 26.5185 2.55657V2.49589C26.5185 2.18333 26.4831 1.92317 26.4117 1.71541C26.3406 1.50765 26.2357 1.40377 26.0973 1.40377C25.9588 1.40377 25.8544 1.50765 25.7842 1.71541C25.7141 1.92317 25.6789 2.18333 25.6789 2.49589V2.55657Z" fill="#999591"/>
<path d="M27.0145 3.668L27.2528 3.59078V1.45893L27.0145 1.38171V1.03145H27.5118L27.5309 1.42032C27.5815 1.27874 27.6467 1.16935 27.7269 1.09213C27.8068 1.01491 27.8993 0.976292 28.0047 0.976292C28.1101 0.976292 28.2002 1.02226 28.2754 1.11419C28.3513 1.20612 28.4083 1.34401 28.4464 1.52787C28.4961 1.35872 28.562 1.2245 28.6438 1.12522C28.7259 1.02594 28.8213 0.976292 28.9305 0.976292C29.0924 0.976292 29.2202 1.08109 29.3139 1.29069C29.4074 1.49845 29.4542 1.81194 29.4542 2.23113V3.59078L29.6926 3.668V4.01549H28.9262V3.668L29.1645 3.59078V2.22562C29.1645 1.93144 29.1379 1.72368 29.0841 1.60234C29.0306 1.47915 28.9512 1.41756 28.8458 1.41756C28.7454 1.41756 28.6643 1.48467 28.6029 1.61888C28.5425 1.75126 28.5073 1.91857 28.4975 2.12082V3.59078L28.7361 3.668V4.01549H27.9709V3.668L28.2095 3.59078V2.22562C28.2095 1.94615 28.1817 1.74207 28.126 1.61337C28.0715 1.48283 27.9921 1.41756 27.8877 1.41756C27.7999 1.41756 27.7278 1.45157 27.6712 1.5196C27.6146 1.58763 27.5713 1.68323 27.5411 1.80642V3.59078L27.7794 3.668V4.01549H27.0145V3.668Z" fill="#999591"/>
<path d="M30.6112 4.07341C30.391 4.07341 30.2154 3.93551 30.0846 3.65973C29.955 3.38209 29.89 3.02265 29.89 2.58139V2.46004C29.89 2.03533 29.9569 1.68231 30.0905 1.40101C30.2252 1.11787 30.3841 0.976292 30.5675 0.976292C30.7799 0.976292 30.9409 1.09764 31.0501 1.34034C31.1602 1.58303 31.2154 1.90662 31.2154 2.31111V2.65034H30.1885L30.184 2.66412C30.1871 2.95095 30.2256 3.1872 30.2996 3.37291C30.3738 3.55676 30.4775 3.64869 30.6112 3.64869C30.7087 3.64869 30.7941 3.62295 30.8672 3.57147C30.9414 3.51815 31.0051 3.44553 31.0589 3.3536L31.1714 3.70661C31.1148 3.80957 31.0399 3.8969 30.9461 3.96861C30.8536 4.03847 30.7418 4.07341 30.6112 4.07341ZM30.5675 1.40377C30.4709 1.40377 30.3883 1.48099 30.3201 1.63543C30.2518 1.78803 30.2099 1.98017 30.1942 2.21183L30.1973 2.22562H30.9271V2.15391C30.9271 1.94064 30.8969 1.76229 30.8365 1.61888C30.7761 1.47547 30.6864 1.40377 30.5675 1.40377Z" fill="#999591"/>
<path d="M49 42.7458H0V43.5527H49V42.7458Z" fill="#FF9000"/>
<path d="M49 10.4705H0V11.2774H49V10.4705Z" fill="#FF9000"/>
<path d="M11.3492 26.1144V31.7851C11.3492 32.2671 11.2973 32.7265 11.1934 33.1633C11.0976 33.585 10.9658 33.954 10.798 34.2703C10.6303 34.5866 10.4306 34.8351 10.1989 35.0159C9.97521 35.2117 9.73557 35.3096 9.47993 35.3096C9.2243 35.3096 8.98465 35.2192 8.76099 35.0385C8.5373 34.8577 8.34159 34.6167 8.17384 34.3155C8.00608 33.9992 7.87028 33.6377 7.76643 33.2311C7.67057 32.8093 7.61865 32.3575 7.61065 31.8755V27.6958C7.5867 27.229 7.47486 26.8901 7.27515 26.6792C7.38699 26.5738 7.49881 26.521 7.61065 26.521V21.1892C7.61865 20.7072 7.67057 20.2554 7.76643 19.8336C7.87028 19.4119 8.00608 19.0504 8.17384 18.7492C8.34159 18.4329 8.5373 18.1843 8.76099 18.0036C8.98465 17.8228 9.2243 17.7325 9.47993 17.7325C9.73557 17.7325 9.97521 17.8304 10.1989 18.0262C10.4306 18.2069 10.6303 18.4554 10.798 18.7718C10.9658 19.0881 11.0976 19.4646 11.1934 19.9014C11.2973 20.3231 11.3492 20.7825 11.3492 21.2796C11.3492 21.5356 11.3612 21.7238 11.3852 21.8444C11.4171 21.9649 11.4491 22.0627 11.481 22.1381C11.513 22.2134 11.5409 22.2811 11.5649 22.3414C11.5969 22.4016 11.6128 22.4996 11.6128 22.6351H10.9897C10.8619 22.605 10.798 22.477 10.798 22.251C10.798 22.477 10.7341 22.605 10.6063 22.6351H9.97122C9.97122 22.4996 9.98321 22.4016 10.0072 22.3414C10.0391 22.2811 10.0711 22.2134 10.103 22.1381C10.135 22.0627 10.1629 21.9649 10.1869 21.8444C10.2189 21.7238 10.2348 21.528 10.2348 21.2569V21.2343C10.2348 21.0385 10.2308 20.8051 10.2229 20.534C10.2149 20.2478 10.1869 19.9767 10.139 19.7206C10.0911 19.4646 10.0152 19.2462 9.9113 19.0655C9.80745 18.8847 9.66366 18.7943 9.47993 18.7943C9.28821 18.7943 9.14043 18.8923 9.03658 19.0881C8.94072 19.2688 8.86884 19.4872 8.82091 19.7432C8.77295 19.9993 8.745 20.2704 8.73701 20.5566C8.72902 20.8427 8.72502 21.0837 8.72502 21.2796V26.521C8.83687 26.521 8.94871 26.5738 9.06055 26.6792C8.86084 26.8901 8.749 27.229 8.72502 27.6958V31.7851C8.72502 31.9809 8.72902 32.2219 8.73701 32.5081C8.745 32.7792 8.77295 33.0503 8.82091 33.3214C8.86884 33.5775 8.94072 33.7959 9.03658 33.9766C9.14043 34.1573 9.28821 34.2477 9.47993 34.2477C9.67165 34.2477 9.81544 34.1573 9.9113 33.9766C10.0152 33.7959 10.0911 33.5775 10.139 33.3214C10.1869 33.0503 10.2149 32.7792 10.2229 32.5081C10.2308 32.2219 10.2348 31.9809 10.2348 31.7851V27.1536C10.147 27.1687 10.0711 27.2365 10.0072 27.357C9.95124 27.4775 9.92329 27.6206 9.92329 27.7862V27.8088C9.9153 28.0347 9.88335 28.2305 9.82743 28.3962C9.7795 28.5468 9.70759 28.6824 9.61173 28.8029C9.51587 28.9083 9.37608 28.9611 9.19236 28.9611V26.1144H11.3492ZM8.25772 25.4592C8.25772 25.3688 8.25372 25.2784 8.24573 25.1881C8.24573 25.0977 8.24573 25.0149 8.24573 24.9395V24.4199C8.23773 24.0885 8.23374 23.7722 8.23374 23.471C8.23374 23.1698 8.22977 22.8836 8.22177 22.6125C8.21378 22.477 8.20979 22.3565 8.20979 22.251C8.20979 22.1305 8.20579 22.01 8.1978 21.8895C8.1978 21.7841 8.1938 21.6862 8.18581 21.5958C8.18581 21.4904 8.18581 21.4 8.18581 21.3247C8.18581 21.2494 8.18184 21.1816 8.17384 21.1214C8.17384 21.0611 8.17384 21.0084 8.17384 20.9633V20.8503C8.16585 20.8503 8.16186 20.8578 8.16186 20.8728V20.9633C8.16186 21.0084 8.15786 21.0611 8.14987 21.1214C8.14987 21.1816 8.14987 21.2494 8.14987 21.3247C8.14987 21.4 8.14587 21.4904 8.13788 21.5958C8.13788 21.6862 8.13788 21.7841 8.13788 21.8895C8.12991 22.01 8.12591 22.1305 8.12591 22.251C8.12591 22.3565 8.12192 22.477 8.11393 22.6125C8.10593 22.8836 8.10194 23.1698 8.10194 23.471C8.10194 23.7722 8.09794 24.0885 8.08995 24.4199V24.9395C8.08995 25.0149 8.08598 25.0977 8.07799 25.1881C8.07799 25.2784 8.07799 25.3688 8.07799 25.4592V27.5603C8.07799 27.6055 8.07799 27.6507 8.07799 27.6958C8.08598 27.7411 8.08995 27.7787 8.08995 27.8088V28.577C8.08995 28.7426 8.08995 28.9083 8.08995 29.074C8.09794 29.2246 8.10194 29.3752 8.10194 29.5259C8.10194 29.6915 8.10194 29.8497 8.10194 30.0003C8.10993 30.1359 8.11393 30.2639 8.11393 30.3844C8.12192 30.5199 8.12591 30.648 8.12591 30.7684C8.12591 30.8889 8.12991 31.0019 8.13788 31.1073C8.13788 31.2278 8.13788 31.3333 8.13788 31.4236C8.14587 31.514 8.14987 31.5968 8.14987 31.6722C8.14987 31.7475 8.14987 31.8153 8.14987 31.8755C8.15786 31.9357 8.16186 31.9885 8.16186 32.0337V32.1466C8.16186 32.1617 8.16585 32.1692 8.17384 32.1692V32.0337C8.17384 31.9885 8.17384 31.9357 8.17384 31.8755C8.18184 31.8153 8.18581 31.7475 8.18581 31.6722C8.18581 31.5968 8.18581 31.514 8.18581 31.4236C8.1938 31.3333 8.1978 31.2278 8.1978 31.1073C8.20579 31.0019 8.20979 30.8889 8.20979 30.7684C8.20979 30.648 8.21378 30.5199 8.22177 30.3844C8.22177 30.2639 8.22177 30.1359 8.22177 30.0003C8.22977 29.8497 8.23374 29.6915 8.23374 29.5259C8.23374 29.3752 8.23374 29.2246 8.23374 29.074C8.24173 28.9083 8.24573 28.7426 8.24573 28.577V28.0799C8.24573 27.9594 8.24972 27.8691 8.25772 27.8088V25.4592ZM10.8699 28.7351C10.8619 28.5845 10.8579 28.449 10.8579 28.3284C10.8579 28.1929 10.8539 28.0649 10.8459 27.9444C10.8379 27.7184 10.826 27.5302 10.81 27.3796C10.81 27.3494 10.806 27.3193 10.798 27.2892C10.798 27.2591 10.798 27.2365 10.798 27.2214V27.1536L10.786 27.1762V27.2214C10.786 27.2365 10.782 27.2591 10.7741 27.2892C10.7741 27.3193 10.7741 27.3494 10.7741 27.3796C10.7581 27.5302 10.7461 27.7184 10.7381 27.9444C10.7301 28.0649 10.7261 28.1929 10.7261 28.3284C10.7261 28.449 10.7221 28.5845 10.7141 28.7351V28.9611C10.7141 29.0062 10.7101 29.0514 10.7021 29.0966C10.7021 29.1267 10.7021 29.1569 10.7021 29.187V30.1359C10.7021 30.1811 10.7061 30.2187 10.7141 30.2488V30.5877C10.7141 30.663 10.7141 30.7308 10.7141 30.7911C10.7221 30.8513 10.7261 30.9191 10.7261 30.9944C10.7261 31.0697 10.7261 31.1375 10.7261 31.1977C10.7341 31.2579 10.7381 31.3182 10.7381 31.3785C10.7461 31.4387 10.7501 31.499 10.7501 31.5592C10.7501 31.6044 10.7541 31.6496 10.7621 31.6948C10.7621 31.7399 10.7621 31.7851 10.7621 31.8303C10.7701 31.8755 10.7741 31.9131 10.7741 31.9433C10.7741 31.9734 10.7741 32.0035 10.7741 32.0337C10.782 32.0638 10.786 32.0864 10.786 32.1014V32.1466C10.786 32.1617 10.79 32.1692 10.798 32.1692V32.1014C10.798 32.0864 10.798 32.0638 10.798 32.0337C10.806 32.0035 10.81 31.9734 10.81 31.9433C10.81 31.9131 10.81 31.8755 10.81 31.8303C10.818 31.7851 10.822 31.7399 10.822 31.6948C10.83 31.6496 10.8339 31.6044 10.8339 31.5592C10.8339 31.499 10.8379 31.4387 10.8459 31.3785C10.8459 31.3182 10.8459 31.2579 10.8459 31.1977C10.8539 31.1375 10.8579 31.0697 10.8579 30.9944C10.8579 30.9191 10.8579 30.8513 10.8579 30.7911C10.8659 30.7308 10.8699 30.663 10.8699 30.5877V30.3618C10.8699 30.3016 10.8739 30.2639 10.8819 30.2488V29.187C10.8819 29.1569 10.8779 29.1267 10.8699 29.0966C10.8699 29.0514 10.8699 29.0062 10.8699 28.9611V28.7351Z" fill="#F4EDE8"/>
<path d="M15.7022 26.5436C15.838 26.5436 15.9499 26.5963 16.0377 26.7018C15.9499 26.8072 15.874 26.9503 15.8101 27.131C15.7542 27.3118 15.7182 27.5076 15.7022 27.7184V31.1299C15.6942 31.6119 15.6383 32.0638 15.5345 32.4855C15.4386 32.8922 15.3068 33.2536 15.1391 33.57C14.9713 33.8712 14.7756 34.1122 14.5519 34.2929C14.3282 34.4736 14.0886 34.564 13.833 34.564C13.5773 34.564 13.3377 34.4736 13.114 34.2929C12.8903 34.1122 12.6946 33.8712 12.5269 33.57C12.3591 33.2536 12.2233 32.8922 12.1195 32.4855C12.0236 32.0638 11.9717 31.6119 11.9637 31.1299V27.7184C11.9397 27.2515 11.8279 26.9127 11.6282 26.7018C11.716 26.5963 11.8279 26.5436 11.9637 26.5436V22.1832C11.9717 21.7163 12.0236 21.272 12.1195 20.8503C12.2233 20.4286 12.3591 20.0671 12.5269 19.7658C12.6946 19.4495 12.8903 19.201 13.114 19.0203C13.3377 18.8395 13.5773 18.7492 13.833 18.7492C14.0886 18.7492 14.3282 18.8395 14.5519 19.0203C14.7756 19.201 14.9713 19.4495 15.1391 19.7658C15.3068 20.0671 15.4386 20.4286 15.5345 20.8503C15.6383 21.272 15.6942 21.7163 15.7022 22.1832V26.5436ZM12.6107 25.7303C12.6107 25.655 12.6067 25.5872 12.5988 25.527C12.5988 25.4516 12.5988 25.3764 12.5988 25.301V24.8718C12.5908 24.5856 12.5868 24.3145 12.5868 24.0584C12.5868 23.8024 12.5828 23.5614 12.5748 23.3355C12.5668 23.23 12.5628 23.1246 12.5628 23.0192C12.5628 22.9137 12.5588 22.8159 12.5508 22.7254C12.5508 22.6351 12.5468 22.5522 12.5388 22.477C12.5388 22.4016 12.5388 22.3339 12.5388 22.2736C12.5388 22.1983 12.5348 22.1381 12.5269 22.0929C12.5269 22.0326 12.5269 21.9874 12.5269 21.9573V21.8443C12.5189 21.8443 12.5149 21.8519 12.5149 21.8669V21.9573C12.5149 21.9874 12.5109 22.0326 12.5029 22.0929C12.5029 22.1381 12.5029 22.1983 12.5029 22.2736C12.5029 22.3339 12.4989 22.4016 12.4909 22.477C12.4909 22.5522 12.4909 22.6351 12.4909 22.7254C12.4829 22.8159 12.4789 22.9137 12.4789 23.0192C12.4789 23.1246 12.4749 23.23 12.467 23.3355C12.459 23.5614 12.455 23.8024 12.455 24.0584C12.455 24.3145 12.451 24.5856 12.443 24.8718V25.301C12.443 25.3764 12.439 25.4516 12.431 25.527C12.431 25.5872 12.431 25.655 12.431 25.7303V27.5151C12.431 27.6205 12.435 27.6958 12.443 27.7411V28.3962C12.443 28.5318 12.443 28.6673 12.443 28.8029C12.451 28.9385 12.455 29.0665 12.455 29.187C12.455 29.3225 12.455 29.4506 12.455 29.571C12.463 29.6765 12.467 29.7895 12.467 29.9099C12.4749 30.0304 12.4789 30.1434 12.4789 30.2488C12.4789 30.3392 12.4829 30.4296 12.4909 30.5199C12.4909 30.6103 12.4909 30.6931 12.4909 30.7684C12.4989 30.8438 12.5029 30.9191 12.5029 30.9944C12.5029 31.0697 12.5029 31.1375 12.5029 31.1977C12.5109 31.2429 12.5149 31.2806 12.5149 31.3107V31.3785C12.5149 31.3935 12.5189 31.401 12.5269 31.401V31.3107C12.5269 31.2806 12.5269 31.2429 12.5269 31.1977C12.5348 31.1375 12.5388 31.0697 12.5388 30.9944C12.5388 30.9191 12.5388 30.8438 12.5388 30.7684C12.5468 30.6931 12.5508 30.6103 12.5508 30.5199C12.5588 30.4296 12.5628 30.3392 12.5628 30.2488C12.5628 30.1434 12.5668 30.0304 12.5748 29.9099C12.5748 29.7895 12.5748 29.6765 12.5748 29.571C12.5828 29.4506 12.5868 29.3225 12.5868 29.187C12.5868 29.0665 12.5868 28.9385 12.5868 28.8029C12.5948 28.6673 12.5988 28.5318 12.5988 28.3962V27.7411C12.6067 27.6958 12.6107 27.6205 12.6107 27.5151V25.7303ZM14.5879 22.2736C14.5879 22.0778 14.5839 21.8368 14.5759 21.5506C14.5679 21.2645 14.5399 20.9934 14.492 20.7373C14.4441 20.4813 14.3682 20.2629 14.2643 20.0821C14.1685 19.8863 14.0247 19.7884 13.833 19.7884C13.6412 19.7884 13.4935 19.8863 13.3896 20.0821C13.2937 20.2629 13.2218 20.4813 13.1739 20.7373C13.126 20.9934 13.098 21.2645 13.09 21.5506C13.082 21.8368 13.0781 22.0778 13.0781 22.2736V26.5436C13.2139 26.5436 13.3257 26.5963 13.4136 26.7018C13.2139 26.9127 13.102 27.2515 13.0781 27.7184V31.0396C13.0781 31.2354 13.082 31.4764 13.09 31.7625C13.098 32.0337 13.126 32.3048 13.1739 32.5759C13.2218 32.8319 13.2937 33.0503 13.3896 33.2311C13.4935 33.4118 13.6412 33.5022 13.833 33.5022C14.0247 33.5022 14.1685 33.4118 14.2643 33.2311C14.3682 33.0503 14.4441 32.8319 14.492 32.5759C14.5399 32.3048 14.5679 32.0337 14.5759 31.7625C14.5839 31.4764 14.5879 31.2354 14.5879 31.0396V27.7184C14.5719 27.2666 14.46 26.9277 14.2523 26.7018C14.3402 26.5963 14.4521 26.5436 14.5879 26.5436V22.2736ZM15.2349 25.7303C15.2349 25.655 15.2349 25.5872 15.2349 25.527C15.2349 25.4516 15.2309 25.3764 15.2229 25.301V24.8718C15.2229 24.5856 15.2189 24.3145 15.211 24.0584C15.211 23.8024 15.207 23.5614 15.199 23.3355C15.191 23.23 15.187 23.1246 15.187 23.0192C15.187 22.9137 15.183 22.8159 15.175 22.7254C15.175 22.6351 15.171 22.5522 15.163 22.477C15.163 22.4016 15.163 22.3339 15.163 22.2736C15.163 22.1983 15.159 22.1381 15.151 22.0929C15.151 22.0326 15.151 21.9874 15.151 21.9573V21.8443C15.143 21.8443 15.1391 21.8519 15.1391 21.8669V21.9573C15.1391 21.9874 15.1391 22.0326 15.1391 22.0929C15.1391 22.1381 15.1351 22.1983 15.1271 22.2736C15.1271 22.3339 15.1231 22.4016 15.1151 22.477C15.1151 22.5522 15.1151 22.6351 15.1151 22.7254C15.1071 22.8159 15.1031 22.9137 15.1031 23.0192C15.1031 23.1246 15.0991 23.23 15.0911 23.3355C15.0831 23.5614 15.0792 23.8024 15.0792 24.0584C15.0792 24.3145 15.0752 24.5856 15.0672 24.8718V25.7303C15.0592 25.8809 15.0552 26.0315 15.0552 26.1821C15.0552 26.3327 15.0552 26.4834 15.0552 26.634C15.0552 26.7846 15.0552 26.9352 15.0552 27.0859C15.0552 27.2214 15.0592 27.3645 15.0672 27.5151V28.3962C15.0672 28.5318 15.0672 28.6673 15.0672 28.8029C15.0752 28.9385 15.0792 29.0665 15.0792 29.187C15.0792 29.3225 15.0792 29.4506 15.0792 29.571C15.0871 29.6765 15.0911 29.7895 15.0911 29.9099C15.0991 30.0304 15.1031 30.1434 15.1031 30.2488C15.1031 30.3392 15.1071 30.4296 15.1151 30.5199C15.1151 30.6103 15.1151 30.6931 15.1151 30.7684C15.1231 30.8438 15.1271 30.9191 15.1271 30.9944C15.1351 31.0697 15.1391 31.1375 15.1391 31.1977C15.1391 31.2429 15.1391 31.2806 15.1391 31.3107V31.3785C15.1391 31.3935 15.143 31.401 15.151 31.401V31.3107C15.151 31.2806 15.151 31.2429 15.151 31.1977C15.159 31.1375 15.163 31.0697 15.163 30.9944C15.163 30.9191 15.163 30.8438 15.163 30.7684C15.171 30.6931 15.175 30.6103 15.175 30.5199C15.183 30.4296 15.187 30.3392 15.187 30.2488C15.187 30.1434 15.191 30.0304 15.199 29.9099C15.199 29.7895 15.199 29.6765 15.199 29.571C15.207 29.4506 15.211 29.3225 15.211 29.187C15.211 29.0665 15.211 28.9385 15.211 28.8029C15.2189 28.6673 15.2229 28.5318 15.2229 28.3962V27.967C15.2229 27.9369 15.2229 27.8992 15.2229 27.854C15.2309 27.8088 15.2349 27.7712 15.2349 27.7411V25.7303Z" fill="#F4EDE8"/>
<path d="M20.1488 23.6292C20.1488 24.3069 20.0609 24.917 19.8852 25.4592C19.7094 26.0014 19.4738 26.4231 19.1782 26.7244C19.322 26.9352 19.4538 27.1837 19.5737 27.4699C19.6935 27.7411 19.7933 28.0423 19.8732 28.3736C19.9611 28.705 20.029 29.0439 20.0769 29.3903C20.1249 29.7367 20.1488 30.0756 20.1488 30.407V31.8529C20.1408 32.3349 20.0889 32.7867 19.9931 33.2085C19.8972 33.6151 19.7654 33.9766 19.5976 34.2929C19.4299 34.5942 19.2341 34.8351 19.0105 35.0159C18.7868 35.2117 18.5471 35.3096 18.2915 35.3096H17.1652C17.1092 35.3096 17.0613 35.2719 17.0214 35.1966C16.9894 35.1213 16.9734 35.0309 16.9734 34.9255C16.9734 35.0309 16.9535 35.1213 16.9135 35.1966C16.8736 35.2719 16.8297 35.3096 16.7817 35.3096H16.1467C16.1467 35.174 16.1586 35.0761 16.1826 35.0159C16.2146 34.9556 16.2465 34.8879 16.2784 34.8125C16.3104 34.7523 16.3384 34.6619 16.3623 34.5414C16.3943 34.421 16.4103 34.2327 16.4103 33.9766V27.6732C16.3863 27.2214 16.2745 26.8901 16.0748 26.6792C16.1786 26.5587 16.2904 26.4984 16.4103 26.4984V19.0655C16.4103 18.8094 16.3943 18.6211 16.3623 18.5006C16.3384 18.3802 16.3104 18.2898 16.2784 18.2295C16.2465 18.1542 16.2146 18.0864 16.1826 18.0262C16.1586 17.9659 16.1467 17.8681 16.1467 17.7325H16.7817C16.8297 17.7325 16.8736 17.7701 16.9135 17.8454C16.9535 17.9057 16.9734 17.9885 16.9734 18.094C16.9734 17.853 17.0374 17.7325 17.1652 17.7325H18.2915C18.5471 17.7325 18.7868 17.8228 19.0105 18.0036C19.2341 18.1843 19.4299 18.4329 19.5976 18.7492C19.7654 19.0504 19.8972 19.4119 19.9931 19.8336C20.0889 20.2554 20.1408 20.6996 20.1488 21.1666V23.6292ZM17.0573 25.301C17.0573 25.1956 17.0533 25.0977 17.0453 25.0073C17.0453 24.9019 17.0453 24.804 17.0453 24.7136V24.1262C17.0374 23.7346 17.0334 23.3656 17.0334 23.0192C17.0334 22.6728 17.0294 22.3489 17.0214 22.0477C17.0134 21.882 17.0094 21.7314 17.0094 21.5958C17.0094 21.4603 17.0054 21.3323 16.9974 21.2117C16.9974 21.0913 16.9934 20.9783 16.9854 20.8728C16.9854 20.7524 16.9854 20.6545 16.9854 20.5792C16.9854 20.4888 16.9814 20.406 16.9734 20.3306C16.9734 20.2553 16.9734 20.1951 16.9734 20.1499V20.0143C16.9654 20.0294 16.9615 20.0445 16.9615 20.0595V20.1499C16.9615 20.1951 16.9575 20.2553 16.9495 20.3306C16.9495 20.406 16.9495 20.4888 16.9495 20.5792C16.9495 20.6545 16.9455 20.7524 16.9375 20.8728C16.9375 20.9783 16.9375 21.0913 16.9375 21.2117C16.9295 21.3323 16.9255 21.4603 16.9255 21.5958C16.9255 21.7314 16.9215 21.882 16.9135 22.0477C16.9056 22.3489 16.9016 22.6728 16.9016 23.0192C16.9016 23.3656 16.8976 23.7346 16.8896 24.1262V24.7136C16.8896 24.804 16.8896 24.9019 16.8896 25.0073C16.8896 25.0977 16.8856 25.1956 16.8776 25.301V27.7184C16.8776 27.7787 16.8776 27.8314 16.8776 27.8766C16.8856 27.9218 16.8896 27.9745 16.8896 28.0347V28.8933C16.8896 29.0891 16.8896 29.2849 16.8896 29.4807C16.8976 29.6614 16.9016 29.8346 16.9016 30.0003C16.9016 30.166 16.9016 30.3317 16.9016 30.4974C16.9095 30.663 16.9135 30.8287 16.9135 30.9944C16.9215 31.0697 16.9255 31.145 16.9255 31.2203C16.9255 31.2806 16.9255 31.3484 16.9255 31.4236C16.9255 31.499 16.9255 31.5667 16.9255 31.627C16.9335 31.6872 16.9375 31.7475 16.9375 31.8077C16.9375 31.9282 16.9375 32.0487 16.9375 32.1692C16.9455 32.2746 16.9495 32.3726 16.9495 32.4629C16.9495 32.5533 16.9495 32.6361 16.9495 32.7114C16.9575 32.7717 16.9615 32.8244 16.9615 32.8696V32.9825C16.9615 32.9976 16.9654 33.0127 16.9734 33.0277V32.8696C16.9734 32.8244 16.9734 32.7717 16.9734 32.7114C16.9814 32.6361 16.9854 32.5533 16.9854 32.4629C16.9854 32.3726 16.9854 32.2746 16.9854 32.1692C16.9934 32.0487 16.9974 31.9282 16.9974 31.8077C17.0054 31.7475 17.0094 31.6872 17.0094 31.627C17.0094 31.5667 17.0094 31.499 17.0094 31.4236C17.0094 31.3484 17.0094 31.2806 17.0094 31.2203C17.0174 31.145 17.0214 31.0697 17.0214 30.9944C17.0214 30.8287 17.0214 30.663 17.0214 30.4974C17.0294 30.3317 17.0334 30.166 17.0334 30.0003C17.0334 29.8346 17.0334 29.6614 17.0334 29.4807C17.0414 29.2849 17.0453 29.0891 17.0453 28.8933V28.3284C17.0453 28.1929 17.0493 28.095 17.0573 28.0347V25.301ZM19.5257 31.401C19.5177 31.4462 19.5137 31.5216 19.5137 31.627V32.0337C19.5137 32.1089 19.5097 32.1768 19.5018 32.237C19.5018 32.2972 19.5018 32.3575 19.5018 32.4177C19.5018 32.478 19.4978 32.5307 19.4898 32.5759C19.4898 32.621 19.4898 32.6662 19.4898 32.7114V32.7792C19.4818 32.7942 19.4778 32.8169 19.4778 32.847V32.9599C19.4698 32.975 19.4658 32.9901 19.4658 33.0051V33.0503C19.4658 33.0654 19.4618 33.0804 19.4538 33.0955C19.4538 33.0955 19.4538 33.103 19.4538 33.1181C19.4538 33.1331 19.4498 33.1482 19.4419 33.1633H19.4538C19.4538 33.1633 19.4578 33.1482 19.4658 33.1181C19.4658 33.1181 19.4698 33.103 19.4778 33.0729C19.4858 33.0579 19.4898 33.0428 19.4898 33.0277C19.4978 33.0127 19.5018 32.9976 19.5018 32.9825C19.5097 32.9675 19.5137 32.9524 19.5137 32.9373C19.5217 32.9223 19.5257 32.8997 19.5257 32.8696C19.5417 32.8395 19.5497 32.8018 19.5497 32.7566C19.5657 32.6964 19.5816 32.5909 19.5976 32.4403C19.6136 32.35 19.6216 32.2897 19.6216 32.2596C19.6296 32.2295 19.6336 32.1993 19.6336 32.1692C19.6336 32.124 19.6376 32.0864 19.6456 32.0562C19.6456 32.0261 19.6456 31.996 19.6456 31.9659C19.6535 31.9207 19.6575 31.883 19.6575 31.8529C19.6655 31.8077 19.6695 31.7399 19.6695 31.6496C19.6775 31.5743 19.6815 31.499 19.6815 31.4236C19.6815 31.3484 19.6855 31.273 19.6935 31.1977V30.2488C19.6935 30.1735 19.6895 30.0982 19.6815 30.0229C19.6815 29.9476 19.6775 29.8723 19.6695 29.797C19.6695 29.7066 19.6655 29.6388 19.6575 29.5936C19.6575 29.5635 19.6535 29.5334 19.6456 29.5033C19.6456 29.4581 19.6456 29.4204 19.6456 29.3903C19.6376 29.3602 19.6336 29.3301 19.6336 29.3C19.6336 29.2547 19.6296 29.2171 19.6216 29.187C19.6216 29.1569 19.6176 29.1267 19.6096 29.0966C19.6096 29.0665 19.6096 29.0363 19.6096 29.0062C19.5936 28.9159 19.5856 28.8631 19.5856 28.8481C19.5776 28.8029 19.5657 28.7502 19.5497 28.6899C19.5497 28.6448 19.5417 28.6071 19.5257 28.577C19.5257 28.5318 19.5177 28.4941 19.5018 28.464C19.4858 28.4038 19.4738 28.3586 19.4658 28.3284C19.4578 28.3134 19.4538 28.2983 19.4538 28.2833H19.4419C19.4419 28.2833 19.4458 28.2983 19.4538 28.3284C19.4538 28.3435 19.4538 28.3586 19.4538 28.3736C19.4618 28.3736 19.4658 28.3812 19.4658 28.3962C19.4658 28.4264 19.4698 28.4565 19.4778 28.4866V28.5996C19.4858 28.6297 19.4898 28.6673 19.4898 28.7125C19.4898 28.7879 19.4938 28.8405 19.5018 28.8707V29.0288C19.5097 29.0891 19.5137 29.1493 19.5137 29.2095C19.5137 29.2698 19.5137 29.3376 19.5137 29.4129V29.6162C19.5137 29.6464 19.5137 29.684 19.5137 29.7292C19.5217 29.7593 19.5257 29.7895 19.5257 29.8196V31.401ZM19.0344 30.407C19.0344 30.2112 19.0304 29.9325 19.0224 29.571C19.0145 29.2095 18.9865 28.8481 18.9386 28.4866C18.8906 28.1251 18.8148 27.8163 18.7109 27.5603C18.6151 27.2892 18.4713 27.1536 18.2796 27.1536H17.8482C17.7603 27.1536 17.6844 27.2139 17.6205 27.3344C17.5566 27.4549 17.5246 27.598 17.5246 27.7637V33.6377C17.5246 33.8034 17.5566 33.9465 17.6205 34.067C17.6844 34.1724 17.7603 34.2327 17.8482 34.2477H18.2796C18.4713 34.2477 18.6151 34.1573 18.7109 33.9766C18.8148 33.7808 18.8906 33.5549 18.9386 33.2988C18.9865 33.0428 19.0145 32.7717 19.0224 32.4855C19.0304 32.1993 19.0344 31.9583 19.0344 31.7625V30.407ZM19.0344 21.2569C19.0344 21.0611 19.0304 20.8277 19.0224 20.5566C19.0145 20.2704 18.9865 19.9993 18.9386 19.7432C18.8906 19.4872 18.8148 19.2688 18.7109 19.0881C18.6151 18.8923 18.4713 18.7943 18.2796 18.7943H17.8482C17.7603 18.7943 17.6844 18.8546 17.6205 18.9751C17.5566 19.0956 17.5246 19.2387 17.5246 19.4044V25.4818C17.5246 25.6474 17.5566 25.7905 17.6205 25.911C17.6844 26.0315 17.7603 26.0918 17.8482 26.0918H18.2796C18.4713 26.0918 18.6151 26.0014 18.7109 25.8206C18.8148 25.6399 18.8906 25.4215 18.9386 25.1655C18.9865 24.8944 19.0145 24.6232 19.0224 24.3522C19.0304 24.066 19.0344 23.825 19.0344 23.6292V21.2569ZM19.5737 24.2392C19.5896 24.1488 19.5976 24.0885 19.5976 24.0584C19.6136 23.9982 19.6216 23.9379 19.6216 23.8777C19.6296 23.8476 19.6336 23.8175 19.6336 23.7873C19.6336 23.7421 19.6376 23.7045 19.6456 23.6744C19.6456 23.6442 19.6456 23.6141 19.6456 23.584C19.6535 23.5388 19.6575 23.4936 19.6575 23.4484C19.6655 23.4032 19.6695 23.328 19.6695 23.2225C19.6775 23.1472 19.6815 23.0719 19.6815 22.9966C19.6815 22.9213 19.6855 22.846 19.6935 22.7706V22.2736C19.6935 22.1079 19.6935 21.9498 19.6935 21.7992C19.6935 21.6335 19.6895 21.4754 19.6815 21.3247C19.6735 21.2796 19.6695 21.2419 19.6695 21.2117C19.6695 21.1666 19.6655 21.1289 19.6575 21.0988C19.6575 20.9934 19.6535 20.9181 19.6456 20.8728C19.6376 20.7976 19.6296 20.7298 19.6216 20.6695C19.6216 20.6093 19.6176 20.549 19.6096 20.4888C19.5936 20.3984 19.5856 20.3382 19.5856 20.3081C19.5697 20.2478 19.5617 20.2026 19.5617 20.1725C19.5457 20.1123 19.5337 20.0671 19.5257 20.0369C19.5257 19.9917 19.5177 19.9541 19.5018 19.924C19.4938 19.8788 19.4818 19.8261 19.4658 19.7658L19.4419 19.7206V19.7432C19.4419 19.7583 19.4419 19.7658 19.4419 19.7658C19.4498 19.7658 19.4538 19.7734 19.4538 19.7884C19.4618 19.8035 19.4658 19.8261 19.4658 19.8562C19.4658 19.8863 19.4698 19.9165 19.4778 19.9466V20.0595C19.4858 20.0897 19.4898 20.1348 19.4898 20.1951C19.4898 20.2252 19.4898 20.2553 19.4898 20.2855C19.4978 20.3005 19.5018 20.3231 19.5018 20.3532V20.5114C19.5097 20.5716 19.5137 20.6319 19.5137 20.6921C19.5137 20.7524 19.5137 20.8202 19.5137 20.8955V21.1214C19.5137 21.1515 19.5137 21.1892 19.5137 21.2343C19.5217 21.2645 19.5257 21.2946 19.5257 21.3247V22.9966C19.5177 23.0418 19.5137 23.1171 19.5137 23.2225V23.6518C19.5137 23.7271 19.5097 23.7948 19.5018 23.8551C19.5018 23.9153 19.5018 23.9756 19.5018 24.0359C19.5018 24.0961 19.4978 24.1563 19.4898 24.2166C19.4898 24.2618 19.4898 24.3069 19.4898 24.3522C19.4898 24.4274 19.4858 24.4726 19.4778 24.4877V24.6232C19.4698 24.6232 19.4658 24.6383 19.4658 24.6684V24.7136C19.4658 24.7287 19.4618 24.7437 19.4538 24.7588C19.4538 24.7588 19.4538 24.7663 19.4538 24.7814C19.4538 24.7964 19.4498 24.8115 19.4419 24.8266L19.4658 24.7814C19.4658 24.7663 19.4658 24.7588 19.4658 24.7588C19.4738 24.7437 19.4778 24.7287 19.4778 24.7136C19.4858 24.7136 19.4898 24.6986 19.4898 24.6684C19.4978 24.6684 19.5018 24.6534 19.5018 24.6232C19.5097 24.6232 19.5137 24.6082 19.5137 24.5781C19.5217 24.563 19.5257 24.5404 19.5257 24.5103C19.5417 24.4802 19.5497 24.4425 19.5497 24.3973C19.5657 24.3069 19.5737 24.2542 19.5737 24.2392Z" fill="#F4EDE8"/>
<path d="M24.6812 33.2085C24.7131 33.4645 24.749 33.6528 24.789 33.7733C24.829 33.8938 24.8689 33.9917 24.9089 34.067C24.9488 34.1423 24.9848 34.2101 25.0166 34.2703C25.0485 34.3306 25.0725 34.4285 25.0885 34.564H24.4534C24.3975 34.564 24.3456 34.5264 24.2978 34.4511C24.2578 34.3758 24.2338 34.2854 24.2257 34.1799C24.2338 34.2854 24.2219 34.3758 24.1898 34.4511C24.1579 34.5264 24.118 34.564 24.0699 34.564H23.435C23.419 34.4285 23.423 34.3306 23.4469 34.2703C23.4709 34.2101 23.4949 34.1498 23.5188 34.0896C23.5428 34.0143 23.5628 33.9164 23.5787 33.7959C23.5947 33.6603 23.5907 33.457 23.5668 33.1859V33.1633L23.3032 30.6103C23.2872 30.4597 23.2432 30.3317 23.1714 30.2262C23.0994 30.1057 23.0196 30.0455 22.9317 30.0455H22.1049C22.017 30.0455 21.9371 30.1057 21.8652 30.2262C21.7934 30.3317 21.7494 30.4597 21.7334 30.6103L21.4818 33.1633V33.1859C21.4579 33.457 21.4499 33.6603 21.4579 33.7959C21.4738 33.9164 21.4938 34.0143 21.5177 34.0896C21.5497 34.1498 21.5737 34.2101 21.5897 34.2703C21.6136 34.3306 21.6216 34.4285 21.6136 34.564H20.9785C20.9226 34.564 20.8787 34.5264 20.8467 34.4511C20.8148 34.3758 20.8028 34.2854 20.8108 34.1799C20.8028 34.2854 20.7788 34.3758 20.7389 34.4511C20.6989 34.5264 20.651 34.564 20.5951 34.564H19.96C19.968 34.4285 19.988 34.3306 20.0199 34.2703C20.0519 34.2101 20.0878 34.1423 20.1278 34.067C20.1677 33.9917 20.2077 33.8938 20.2476 33.7733C20.2876 33.6528 20.3235 33.4645 20.3554 33.2085L20.8947 27.7184C20.9106 27.5076 20.8987 27.3118 20.8587 27.131C20.8188 26.9503 20.7549 26.8072 20.667 26.7018C20.7948 26.5963 20.9106 26.5436 21.0145 26.5436L21.6616 20.1047C21.6855 19.8486 21.6895 19.6604 21.6735 19.5399C21.6576 19.4044 21.6376 19.3064 21.6136 19.2462C21.5897 19.1709 21.5657 19.1031 21.5417 19.0429C21.5177 18.9826 21.5138 18.8847 21.5297 18.7492H22.3326C22.4524 18.7793 22.5123 18.9073 22.5123 19.1332C22.5123 19.0278 22.5283 18.945 22.5602 18.8847C22.6002 18.8094 22.6441 18.7642 22.692 18.7492H23.5069C23.5228 18.8847 23.5188 18.9826 23.4949 19.0429C23.4789 19.1031 23.4589 19.1709 23.435 19.2462C23.411 19.3064 23.391 19.4044 23.3751 19.5399C23.3591 19.6604 23.3631 19.8486 23.387 20.1047L24.0221 26.5436C24.0861 26.5436 24.1458 26.5587 24.2019 26.5888C24.2578 26.6189 24.3137 26.6566 24.3696 26.7018C24.1939 26.9127 24.118 27.2515 24.142 27.7184L24.6812 33.2085ZM21.8053 25.1203C21.8213 25.0299 21.8293 24.9471 21.8293 24.8718C21.8373 24.7814 21.8453 24.6986 21.8533 24.6232C21.8932 24.2768 21.9252 23.953 21.9491 23.6518C21.9731 23.3355 21.9971 23.0493 22.021 22.7933C22.037 22.6728 22.045 22.5522 22.045 22.4318C22.053 22.3113 22.061 22.1908 22.0689 22.0703C22.0769 21.9649 22.0849 21.8669 22.0929 21.7766C22.1009 21.6862 22.1089 21.6034 22.1169 21.528C22.1249 21.4528 22.1289 21.3849 22.1289 21.3247C22.1289 21.2494 22.1329 21.1891 22.1409 21.144V21.0536L22.1289 21.144C22.1209 21.1891 22.1129 21.2419 22.1049 21.3021C22.0969 21.3624 22.0889 21.4302 22.0809 21.5055C22.065 21.5808 22.053 21.6711 22.045 21.7766C22.037 21.8669 22.025 21.9573 22.009 22.0477C21.9931 22.1682 21.9771 22.2887 21.9611 22.4091C21.9531 22.5297 21.9411 22.6502 21.9252 22.7706C21.8852 23.0267 21.8453 23.3054 21.8053 23.6066C21.7734 23.8927 21.7374 24.2091 21.6975 24.5555C21.6975 24.6458 21.6935 24.7287 21.6855 24.804C21.6775 24.8793 21.6656 24.9621 21.6496 25.0525C21.6416 25.1429 21.6336 25.2333 21.6256 25.3236C21.6176 25.3989 21.6096 25.4818 21.6016 25.5721C21.5777 25.7378 21.5537 25.911 21.5297 26.0918C21.5138 26.2725 21.4978 26.4532 21.4818 26.634C21.4658 26.7997 21.4459 26.9729 21.4219 27.1536C21.4059 27.3343 21.3899 27.5076 21.374 27.6732C21.366 27.7184 21.362 27.7636 21.362 27.8088C21.362 27.8389 21.358 27.8766 21.35 27.9218C21.334 28.0423 21.326 28.1326 21.326 28.1929C21.3021 28.3435 21.2861 28.5092 21.2781 28.6899C21.2621 28.8556 21.2462 29.0213 21.2302 29.187C21.2142 29.3526 21.2022 29.5033 21.1942 29.6388C21.1703 29.9853 21.1463 30.2714 21.1223 30.4974C21.1064 30.6178 21.0944 30.7383 21.0864 30.8588C21.0784 30.9793 21.0704 31.0998 21.0624 31.2203C21.0464 31.3258 21.0345 31.4312 21.0265 31.5366C21.0265 31.627 21.0225 31.7098 21.0145 31.7851C21.0065 31.8604 21.0025 31.9282 21.0025 31.9885C21.0025 32.0487 20.9985 32.1014 20.9905 32.1466C20.9905 32.1768 20.9865 32.1993 20.9785 32.2144C20.9785 32.2144 20.9785 32.2219 20.9785 32.237V32.2596C20.9865 32.2596 20.9905 32.252 20.9905 32.237C20.9905 32.2069 20.9945 32.1768 21.0025 32.1466C21.0105 32.1165 21.0145 32.0713 21.0145 32.0111C21.0225 31.9357 21.0345 31.8604 21.0504 31.7851C21.0664 31.7098 21.0784 31.627 21.0864 31.5366C21.1024 31.4462 21.1183 31.3483 21.1343 31.2429C21.1503 31.1375 21.1623 31.0245 21.1703 30.904C21.1862 30.7835 21.1982 30.663 21.2062 30.5425C21.2222 30.422 21.2382 30.294 21.2541 30.1585C21.2781 30.0078 21.2981 29.8572 21.3141 29.7066C21.33 29.556 21.346 29.3978 21.362 29.2321C21.3859 29.0665 21.4099 28.9008 21.4339 28.7351C21.4419 28.6598 21.4499 28.5845 21.4579 28.5092C21.4658 28.4188 21.4738 28.336 21.4818 28.2607L21.5177 27.9895C21.5257 27.9444 21.5297 27.8992 21.5297 27.854C21.5297 27.8088 21.5337 27.7636 21.5417 27.7184C21.5577 27.5528 21.5777 27.3871 21.6016 27.2214C21.6256 27.0407 21.6456 26.8599 21.6616 26.6792C21.6775 26.5135 21.6935 26.3403 21.7095 26.1595C21.7254 25.9788 21.7414 25.8056 21.7574 25.6399C21.7654 25.5496 21.7734 25.4592 21.7814 25.3688C21.7894 25.2784 21.7974 25.1956 21.8053 25.1203ZM22.8239 28.9836C22.9117 28.9686 22.9796 28.9083 23.0276 28.8029C23.0835 28.6824 23.1034 28.5393 23.0875 28.3736L23.0156 27.7184C22.9836 27.5076 22.9277 27.3118 22.8478 27.131C22.7759 26.9503 22.6881 26.8072 22.5842 26.7018C22.6801 26.5963 22.7839 26.5436 22.8957 26.5436L22.5123 22.6803L22.1289 26.5436C22.2327 26.5436 22.3406 26.5963 22.4524 26.7018C22.3406 26.8072 22.2447 26.9503 22.1648 27.131C22.0929 27.3118 22.045 27.5076 22.021 27.7184L21.9611 28.3736C21.9451 28.5393 21.9611 28.6824 22.009 28.8029C22.057 28.9083 22.1209 28.9686 22.2008 28.9836H22.8239ZM24.034 32.1466C24.034 32.1768 24.034 32.1993 24.034 32.2144C24.0421 32.2144 24.0461 32.2219 24.0461 32.237V32.1466C24.0381 32.1014 24.034 32.0487 24.034 31.9885C24.034 31.9282 24.0302 31.8604 24.0221 31.7851C24.014 31.7098 24.0062 31.627 23.9981 31.5366C23.9981 31.4312 23.9902 31.3258 23.9741 31.2203C23.9662 31.0998 23.9581 30.9793 23.9503 30.8588C23.9422 30.7383 23.9303 30.6178 23.9144 30.4974C23.8903 30.2714 23.8663 29.9853 23.8423 29.6388C23.8264 29.5033 23.8104 29.3526 23.7945 29.187C23.7864 29.0213 23.7745 28.8556 23.7585 28.6899C23.7425 28.5996 23.7305 28.5167 23.7226 28.4414C23.7226 28.3661 23.7146 28.2833 23.6986 28.1929C23.6986 28.1326 23.6906 28.0423 23.6746 27.9218C23.6746 27.8766 23.6706 27.8389 23.6626 27.8088C23.6626 27.7636 23.6626 27.7184 23.6626 27.6732C23.6467 27.5076 23.6267 27.3343 23.6027 27.1536C23.5867 26.9729 23.5708 26.7997 23.5548 26.634C23.5388 26.4532 23.5188 26.2725 23.4949 26.0918C23.4789 25.911 23.4589 25.7378 23.435 25.5721C23.427 25.4818 23.419 25.3989 23.411 25.3236C23.403 25.2333 23.395 25.1429 23.387 25.0525C23.3711 24.9621 23.3591 24.8793 23.3511 24.804C23.3431 24.7287 23.3351 24.6458 23.3271 24.5555C23.2872 24.2091 23.2472 23.8927 23.2073 23.6066C23.1753 23.3054 23.1474 23.0267 23.1234 22.7706C23.1074 22.6502 23.0915 22.5297 23.0755 22.4091C23.0595 22.2887 23.0435 22.1682 23.0276 22.0477C23.0116 21.9573 22.9956 21.8669 22.9796 21.7766C22.9716 21.6711 22.9597 21.5808 22.9437 21.5055C22.9357 21.4302 22.9277 21.3624 22.9197 21.3021C22.9117 21.2419 22.9037 21.1891 22.8957 21.144L22.8838 21.0536V21.144C22.8917 21.2193 22.9037 21.3473 22.9197 21.528C22.9197 21.6034 22.9237 21.6862 22.9317 21.7766C22.9397 21.8669 22.9477 21.9649 22.9557 22.0703C22.9636 22.1908 22.9716 22.3113 22.9796 22.4318C22.9876 22.5522 22.9996 22.6728 23.0156 22.7933C23.0395 23.0493 23.0635 23.3355 23.0875 23.6518C23.1114 23.953 23.1394 24.2768 23.1714 24.6232C23.1793 24.6986 23.1833 24.7814 23.1833 24.8718C23.1913 24.9471 23.2033 25.0299 23.2193 25.1203C23.2273 25.1956 23.2352 25.2784 23.2432 25.3688C23.2512 25.4592 23.2592 25.5496 23.2672 25.6399C23.2832 25.8056 23.2992 25.9788 23.3151 26.1595C23.3391 26.3403 23.3591 26.5135 23.3751 26.6792C23.391 26.8599 23.411 27.0407 23.435 27.2214C23.4589 27.3871 23.4789 27.5528 23.4949 27.7184C23.5029 27.7636 23.5069 27.8088 23.5069 27.854C23.5069 27.8992 23.5109 27.9444 23.5188 27.9895L23.5548 28.2607C23.5628 28.336 23.5708 28.4188 23.5787 28.5092C23.5867 28.5845 23.5947 28.6598 23.6027 28.7351C23.6267 28.9008 23.6467 29.0665 23.6626 29.2321C23.6786 29.3978 23.6946 29.556 23.7106 29.7066C23.7265 29.8572 23.7425 30.0078 23.7585 30.1585C23.7824 30.294 23.8023 30.422 23.8185 30.5425C23.8344 30.663 23.8504 30.7835 23.8663 30.904C23.8823 31.0245 23.8982 31.1375 23.9144 31.2429C23.9382 31.4538 23.9622 31.6345 23.9862 31.7851C24.0021 31.8604 24.0102 31.9357 24.0102 32.0111C24.0181 32.0713 24.0262 32.1165 24.034 32.1466Z" fill="#F4EDE8"/>
<path d="M29.7088 35.5129C29.7965 35.543 29.8565 35.5958 29.8884 35.671C29.9283 35.7464 29.9564 35.8217 29.9723 35.897C29.9883 35.9874 29.9963 36.0853 29.9963 36.1907C29.7406 36.1907 29.5009 36.1305 29.2773 36.0099C29.0537 35.8895 28.8539 35.6936 28.6781 35.4226C28.5104 35.1514 28.3746 34.7975 28.2709 34.3607C28.175 33.9239 28.127 33.3892 28.127 32.7566V29.6614C28.127 29.4656 28.1229 29.2246 28.1151 28.9385C28.107 28.6523 28.0792 28.3812 28.0311 28.1251C27.9833 27.8691 27.9074 27.6507 27.8035 27.4699C27.7076 27.2741 27.5637 27.1762 27.372 27.1762H26.8808C26.809 27.2063 26.745 27.2817 26.6891 27.4022C26.6413 27.5076 26.6173 27.6356 26.6173 27.7862V33.1859C26.6173 33.457 26.6291 33.6603 26.6532 33.7959C26.685 33.9164 26.7172 34.0143 26.749 34.0896C26.7809 34.1498 26.809 34.2101 26.833 34.2703C26.8649 34.3306 26.8808 34.4285 26.8808 34.564H26.2457C26.1979 34.564 26.1539 34.5264 26.1139 34.4511C26.074 34.3758 26.054 34.2929 26.054 34.2026C26.054 34.2929 26.034 34.3758 25.9941 34.4511C25.9622 34.5264 25.9182 34.564 25.8623 34.564H25.2393C25.2393 34.4285 25.2512 34.3306 25.2752 34.2703C25.3071 34.2101 25.339 34.1498 25.3711 34.0896C25.403 34.0143 25.431 33.9164 25.4548 33.7959C25.4869 33.6754 25.5029 33.4871 25.5029 33.2311V27.7184C25.4788 27.2515 25.367 26.9127 25.1672 26.7018C25.2552 26.5963 25.367 26.5436 25.5029 26.5436V20.0821C25.5029 19.8261 25.4869 19.6378 25.4548 19.5173C25.431 19.3968 25.403 19.3064 25.3711 19.2462C25.339 19.1709 25.3071 19.1031 25.2752 19.0429C25.2512 18.9826 25.2393 18.8847 25.2393 18.7492H25.8744C25.9222 18.7492 25.9662 18.7868 26.0062 18.8621C26.0461 18.9224 26.0661 19.0052 26.0661 19.1106C26.0661 18.8697 26.1299 18.7492 26.2578 18.7492H27.3841C27.6398 18.7492 27.8794 18.8395 28.103 19.0203C28.3268 19.201 28.5223 19.4495 28.6902 19.7658C28.8579 20.0671 28.9897 20.4286 29.0856 20.8503C29.1814 21.272 29.2333 21.7163 29.2414 22.1832V23.6518C29.2414 24.2843 29.1614 24.8643 29.0018 25.3914C28.842 25.9186 28.6263 26.3403 28.3546 26.6566C28.6263 26.9578 28.842 27.3796 29.0018 27.9218C29.1614 28.449 29.2414 29.0288 29.2414 29.6614V32.6662C29.2414 32.9825 29.2414 33.3063 29.2414 33.6377C29.2495 33.954 29.2694 34.2477 29.3013 34.5188C29.3332 34.7749 29.3812 34.9933 29.445 35.174C29.509 35.3548 29.597 35.4677 29.7088 35.5129ZM28.6182 23.2677C28.6103 23.2978 28.6063 23.3355 28.6063 23.3806V23.9003C28.5984 23.9605 28.5944 24.0208 28.5944 24.081C28.5944 24.1262 28.5944 24.1714 28.5944 24.2166C28.5944 24.2467 28.5903 24.2693 28.5822 24.2843C28.5822 24.2994 28.5822 24.322 28.5822 24.3522V24.4877C28.5744 24.5178 28.5704 24.5555 28.5704 24.6006C28.5704 24.6308 28.5663 24.6609 28.5585 24.691C28.5585 24.7212 28.5544 24.7437 28.5463 24.7588V24.804L28.5344 24.8492C28.5344 24.8492 28.5423 24.8417 28.5585 24.8266V24.804L28.5704 24.7814C28.5784 24.7663 28.5822 24.7588 28.5822 24.7588C28.5822 24.7437 28.5863 24.7287 28.5944 24.7136C28.6022 24.6835 28.6103 24.6534 28.6182 24.6232C28.6263 24.5781 28.6343 24.5404 28.6422 24.5103C28.6503 24.4802 28.6543 24.4651 28.6543 24.4651C28.6543 24.45 28.6581 24.4274 28.6662 24.3973C28.6743 24.3672 28.6781 24.3446 28.6781 24.3296C28.6781 24.2994 28.6821 24.2693 28.6902 24.2392C28.6981 24.2091 28.7021 24.1865 28.7021 24.1714C28.7021 24.1563 28.7062 24.1337 28.7143 24.1036C28.7143 24.0735 28.7143 24.0509 28.7143 24.0358C28.7221 24.0057 28.7262 23.9756 28.7262 23.9455C28.734 23.8852 28.738 23.825 28.738 23.7647C28.7461 23.7045 28.754 23.6442 28.7621 23.584C28.7702 23.5388 28.774 23.471 28.774 23.3806C28.774 23.3505 28.774 23.3204 28.774 23.2903C28.7821 23.2601 28.7861 23.23 28.7861 23.1999V22.4091C28.7861 22.3188 28.7821 22.251 28.774 22.2058V22.1155C28.774 22.0853 28.7702 22.0703 28.7621 22.0703C28.7621 22.0552 28.7621 22.0326 28.7621 22.0025C28.7621 21.9272 28.754 21.8142 28.738 21.6636C28.7302 21.6335 28.7262 21.6034 28.7262 21.5732C28.7262 21.5431 28.7221 21.513 28.7143 21.4829C28.7143 21.4678 28.7102 21.4603 28.7021 21.4603C28.7021 21.4452 28.7021 21.4302 28.7021 21.4151C28.7021 21.4 28.6981 21.3925 28.6902 21.3925C28.6902 21.3774 28.6902 21.3624 28.6902 21.3473C28.6821 21.3172 28.6781 21.2946 28.6781 21.2796C28.6781 21.2645 28.6743 21.2419 28.6662 21.2117C28.6581 21.1816 28.6543 21.159 28.6543 21.144C28.6543 21.1289 28.6503 21.1063 28.6422 21.0762C28.6343 21.0611 28.6303 21.0461 28.6303 21.031C28.6303 21.0159 28.6263 21.0009 28.6182 20.9858C28.6022 20.9256 28.5944 20.8955 28.5944 20.8955C28.5863 20.8804 28.5822 20.8728 28.5822 20.8728C28.5822 20.8578 28.5784 20.8427 28.5704 20.8277C28.5623 20.8126 28.5585 20.7976 28.5585 20.7825C28.5504 20.7674 28.5463 20.7524 28.5463 20.7373H28.5344C28.5344 20.7373 28.5385 20.7524 28.5463 20.7825V20.8277C28.5544 20.8427 28.5585 20.8728 28.5585 20.9181C28.5585 20.9331 28.5585 20.9482 28.5585 20.9632C28.5663 20.9632 28.5704 20.9783 28.5704 21.0084C28.5704 21.0536 28.5744 21.0913 28.5822 21.1214V21.2343C28.5822 21.2645 28.5822 21.2871 28.5822 21.3021C28.5903 21.3172 28.5944 21.3398 28.5944 21.3699C28.5944 21.5055 28.5984 21.6109 28.6063 21.6862V22.0477C28.6144 22.123 28.6182 22.2435 28.6182 22.4091V23.2677ZM26.1499 25.5947C26.1499 25.5194 26.1458 25.4366 26.138 25.3462C26.138 25.2558 26.138 25.1655 26.138 25.0751V24.5781C26.1299 24.2467 26.1258 23.9304 26.1258 23.6292C26.1258 23.328 26.122 23.0418 26.1139 22.7706C26.1058 22.6502 26.102 22.5297 26.102 22.4091C26.102 22.2887 26.098 22.1757 26.0899 22.0703C26.0899 21.9498 26.0859 21.8443 26.078 21.754C26.078 21.6636 26.078 21.5808 26.078 21.5055C26.078 21.4302 26.074 21.3624 26.0661 21.3021C26.0661 21.2419 26.0661 21.1891 26.0661 21.144V21.031C26.058 21.031 26.054 21.0385 26.054 21.0536V21.144C26.054 21.1891 26.0499 21.2419 26.0421 21.3021C26.0421 21.3624 26.0421 21.4302 26.0421 21.5055C26.0421 21.5808 26.0381 21.6636 26.03 21.754C26.03 21.8443 26.03 21.9498 26.03 22.0703C26.0221 22.1757 26.0181 22.2887 26.0181 22.4091C26.0181 22.5297 26.014 22.6502 26.0062 22.7706C25.9981 23.0418 25.9941 23.328 25.9941 23.6292C25.9941 23.9304 25.99 24.2467 25.9822 24.5781V25.0751C25.9822 25.1655 25.9781 25.2558 25.9703 25.3462C25.9703 25.4366 25.9703 25.5194 25.9703 25.5947V27.6958C25.9703 27.8163 25.9741 27.9067 25.9822 27.967V28.7125C25.9822 28.8782 25.9822 29.0439 25.9822 29.2095C25.99 29.3602 25.9941 29.5108 25.9941 29.6614C25.9941 29.8271 25.9941 29.9777 25.9941 30.1133C26.0021 30.2488 26.0062 30.3844 26.0062 30.5199C26.014 30.6555 26.0181 30.7835 26.0181 30.904C26.0181 31.0095 26.0221 31.1224 26.03 31.2429C26.03 31.3484 26.03 31.4462 26.03 31.5366C26.0381 31.627 26.0421 31.7098 26.0421 31.7851C26.0421 31.8604 26.0421 31.9357 26.0421 32.0111C26.0499 32.0713 26.054 32.1165 26.054 32.1466V32.2596C26.054 32.2746 26.058 32.2821 26.0661 32.2821V32.1466C26.0661 32.1165 26.0661 32.0713 26.0661 32.0111C26.074 31.9357 26.078 31.8604 26.078 31.7851C26.078 31.7098 26.078 31.627 26.078 31.5366C26.0859 31.4462 26.0899 31.3484 26.0899 31.2429C26.098 31.1224 26.102 31.0095 26.102 30.904C26.102 30.7835 26.1058 30.6555 26.1139 30.5199C26.1139 30.3844 26.1139 30.2488 26.1139 30.1133C26.122 29.9777 26.1258 29.8271 26.1258 29.6614C26.1258 29.5108 26.1258 29.3602 26.1258 29.2095C26.1339 29.0439 26.138 28.8782 26.138 28.7125V28.2155C26.138 28.095 26.142 28.0121 26.1499 27.967V25.5947ZM28.127 22.2736C28.127 22.0778 28.1229 21.8368 28.1151 21.5506C28.107 21.2645 28.0792 20.9934 28.0311 20.7373C27.9833 20.4813 27.9074 20.2629 27.8035 20.0821C27.7076 19.8863 27.5637 19.7884 27.372 19.7884H26.9407C26.853 19.8035 26.7769 19.8712 26.7131 19.9917C26.6491 20.1123 26.6173 20.2553 26.6173 20.421V25.5044C26.6173 25.67 26.6491 25.8131 26.7131 25.9336C26.7769 26.0541 26.853 26.1144 26.9407 26.1144H27.372C27.5637 26.1144 27.7076 26.024 27.8035 25.8433C27.9074 25.6625 27.9833 25.4441 28.0311 25.1881C28.0792 24.9169 28.107 24.6458 28.1151 24.3747C28.1229 24.0885 28.127 23.8476 28.127 23.6518V22.2736ZM28.9298 34.6544C28.9298 34.6544 28.9257 34.6469 28.9179 34.6318L28.906 34.6092C28.8979 34.5791 28.8898 34.549 28.882 34.5188C28.882 34.4887 28.8739 34.4586 28.8579 34.4285C28.8498 34.3833 28.842 34.3381 28.8339 34.2929C28.8261 34.2327 28.818 34.1649 28.8101 34.0896C28.7939 33.939 28.7861 33.7959 28.7861 33.6603C28.778 33.585 28.774 33.5097 28.774 33.4344C28.774 33.344 28.774 33.2461 28.774 33.1407V31.9433C28.774 31.8379 28.774 31.7324 28.774 31.627C28.774 31.5216 28.778 31.4086 28.7861 31.2881C28.7861 31.1827 28.7861 31.0772 28.7861 30.9718C28.7861 30.8664 28.7821 30.7609 28.774 30.6555V30.3392C28.774 30.1886 28.7702 30.0831 28.7621 30.0229C28.7621 29.9175 28.758 29.8196 28.7502 29.7292C28.7502 29.6238 28.7461 29.5258 28.738 29.4355C28.7221 29.2246 28.7062 29.0439 28.6902 28.8933C28.6821 28.818 28.6743 28.7502 28.6662 28.6899C28.6581 28.6146 28.6462 28.5393 28.6303 28.464C28.6144 28.3887 28.6022 28.3284 28.5944 28.2833C28.5863 28.2381 28.5744 28.1929 28.5585 28.1477C28.5423 28.1025 28.5304 28.0649 28.5223 28.0347C28.5145 28.0046 28.5064 27.9745 28.4985 27.9444C28.4904 27.9444 28.4826 27.9369 28.4745 27.9218C28.4664 27.9218 28.4626 27.9143 28.4626 27.8992L28.4745 27.9218C28.4745 27.9369 28.4785 27.9519 28.4864 27.967C28.4864 27.982 28.4864 27.9971 28.4864 28.0121C28.4945 28.0121 28.4985 28.0272 28.4985 28.0573C28.5064 28.0724 28.5104 28.0875 28.5104 28.1025C28.5104 28.1176 28.5145 28.1402 28.5223 28.1703C28.5304 28.2305 28.5423 28.336 28.5585 28.4866C28.5663 28.5619 28.5704 28.6372 28.5704 28.7125C28.5784 28.7878 28.5863 28.8631 28.5944 28.9385C28.5944 29.0137 28.5944 29.0966 28.5944 29.187C28.6022 29.2623 28.6063 29.3526 28.6063 29.4581V32.2596C28.6063 32.3198 28.6063 32.3725 28.6063 32.4177C28.6144 32.4629 28.6182 32.5156 28.6182 32.5759C28.6182 32.6813 28.6182 32.7867 28.6182 32.8922C28.6263 32.9825 28.6343 33.0729 28.6422 33.1633C28.6503 33.2536 28.6543 33.344 28.6543 33.4344C28.6622 33.5248 28.6703 33.6076 28.6781 33.6829C28.6943 33.7733 28.7062 33.8561 28.7143 33.9314C28.7221 33.9917 28.734 34.0595 28.7502 34.1348C28.7661 34.2101 28.778 34.2703 28.7861 34.3155C28.7939 34.3607 28.8061 34.4059 28.822 34.4511L28.846 34.4962C28.8539 34.5113 28.8579 34.5264 28.8579 34.5414C28.8579 34.5414 28.862 34.549 28.8698 34.564L28.9179 34.6544H28.9298Z" fill="#F4EDE8"/>
<path d="M33.3014 23.6518C33.3014 24.2843 33.2218 24.8643 33.0619 25.3914C32.9021 25.9186 32.6866 26.3403 32.4149 26.6566C32.6866 26.9578 32.9021 27.3796 33.0619 27.9218C33.2218 28.449 33.3014 29.0288 33.3014 29.6614V31.1299C33.2936 31.6119 33.2417 32.0638 33.1459 32.4855C33.05 32.8922 32.918 33.2536 32.7503 33.57C32.5826 33.8712 32.3869 34.1122 32.1633 34.2929C31.9394 34.4736 31.6999 34.564 31.4442 34.564H30.306C30.258 34.564 30.214 34.5264 30.174 34.4511C30.1343 34.3758 30.1143 34.2929 30.1143 34.2026C30.1143 34.2929 30.0943 34.3758 30.0544 34.4511C30.0222 34.5264 29.9785 34.564 29.9226 34.564H29.2994C29.2994 34.4285 29.3113 34.3306 29.3353 34.2703C29.3672 34.2101 29.3993 34.1498 29.4312 34.0896C29.4633 34.0143 29.4911 33.9164 29.5151 33.7959C29.547 33.6754 29.5629 33.4871 29.5629 33.2311V27.7184C29.5391 27.2515 29.4271 26.9127 29.2275 26.7018C29.3153 26.5963 29.4271 26.5436 29.5629 26.5436V20.0821C29.5629 19.8261 29.547 19.6378 29.5151 19.5173C29.4911 19.3968 29.4633 19.3064 29.4312 19.2462C29.3993 19.1709 29.3672 19.1031 29.3353 19.0429C29.3113 18.9826 29.2994 18.8847 29.2994 18.7492H29.9345C29.9823 18.7492 30.0263 18.7868 30.0662 18.8621C30.1062 18.9224 30.1262 19.0052 30.1262 19.1106C30.1262 18.8697 30.1902 18.7492 30.3179 18.7492H31.4442C31.6999 18.7492 31.9394 18.8395 32.1633 19.0203C32.3869 19.201 32.5826 19.4495 32.7503 19.7658C32.918 20.0671 33.05 20.4286 33.1459 20.8503C33.2417 21.272 33.2936 21.7163 33.3014 22.1832V23.6518ZM30.2102 25.5947C30.2102 25.5194 30.2061 25.4366 30.198 25.3462C30.198 25.2558 30.198 25.1655 30.198 25.0751V24.5781C30.1902 24.2467 30.1861 23.9304 30.1861 23.6292C30.1861 23.328 30.1821 23.0418 30.174 22.7706C30.1662 22.6502 30.1621 22.5297 30.1621 22.4091C30.1621 22.2887 30.1581 22.1757 30.1502 22.0703C30.1502 21.9498 30.1462 21.8443 30.1381 21.754C30.1381 21.6636 30.1381 21.5808 30.1381 21.5055C30.1381 21.4302 30.1343 21.3624 30.1262 21.3021C30.1262 21.2419 30.1262 21.1891 30.1262 21.144V21.031C30.1181 21.031 30.1143 21.0385 30.1143 21.0536V21.144C30.1143 21.1891 30.1103 21.2419 30.1022 21.3021C30.1022 21.3624 30.1022 21.4302 30.1022 21.5055C30.1022 21.5808 30.0981 21.6636 30.0903 21.754C30.0903 21.8443 30.0903 21.9498 30.0903 22.0703C30.0822 22.1757 30.0781 22.2887 30.0781 22.4091C30.0781 22.5297 30.0743 22.6502 30.0662 22.7706C30.0582 23.0418 30.0544 23.328 30.0544 23.6292C30.0544 23.9304 30.0503 24.2467 30.0422 24.5781V25.0751C30.0422 25.1655 30.0384 25.2558 30.0303 25.3462C30.0303 25.4366 30.0303 25.5194 30.0303 25.5947V27.6958C30.0303 27.8163 30.0344 27.9067 30.0422 27.967V28.7125C30.0422 28.8782 30.0422 29.0439 30.0422 29.2095C30.0503 29.3602 30.0544 29.5108 30.0544 29.6614C30.0544 29.8271 30.0544 29.9777 30.0544 30.1133C30.0622 30.2488 30.0662 30.3844 30.0662 30.5199C30.0743 30.6555 30.0781 30.7835 30.0781 30.904C30.0781 31.0095 30.0822 31.1224 30.0903 31.2429C30.0903 31.3483 30.0903 31.4462 30.0903 31.5366C30.0981 31.627 30.1022 31.7098 30.1022 31.7851C30.1022 31.8604 30.1022 31.9357 30.1022 32.0111C30.1103 32.0713 30.1143 32.1165 30.1143 32.1466V32.2596C30.1143 32.2746 30.1181 32.2821 30.1262 32.2821V32.1466C30.1262 32.1165 30.1262 32.0713 30.1262 32.0111C30.1343 31.9357 30.1381 31.8604 30.1381 31.7851C30.1381 31.7098 30.1381 31.627 30.1381 31.5366C30.1462 31.4462 30.1502 31.3483 30.1502 31.2429C30.1581 31.1224 30.1621 31.0095 30.1621 30.904C30.1621 30.7835 30.1662 30.6555 30.174 30.5199C30.174 30.3844 30.174 30.2488 30.174 30.1133C30.1821 29.9777 30.1861 29.8271 30.1861 29.6614C30.1861 29.5108 30.1861 29.3602 30.1861 29.2095C30.194 29.0439 30.198 28.8782 30.198 28.7125V28.2155C30.198 28.095 30.2021 28.0121 30.2102 27.967V25.5947ZM32.6785 30.8362C32.6704 30.8664 32.6666 30.904 32.6666 30.9492V31.4688C32.6585 31.5291 32.6544 31.5893 32.6544 31.6496C32.6544 31.6948 32.6544 31.7399 32.6544 31.7851C32.6544 31.8153 32.6504 31.8379 32.6426 31.8529C32.6426 31.868 32.6426 31.8906 32.6426 31.9207V32.0562C32.6345 32.0863 32.6304 32.124 32.6304 32.1692C32.6304 32.1993 32.6266 32.2294 32.6185 32.2596C32.6185 32.2897 32.6145 32.3123 32.6066 32.3274V32.3725L32.5945 32.4177C32.5945 32.4177 32.6026 32.4102 32.6185 32.3951V32.3725L32.6304 32.35C32.6385 32.3349 32.6426 32.3274 32.6426 32.3274C32.6426 32.3123 32.6466 32.2972 32.6544 32.2821C32.6625 32.252 32.6704 32.2219 32.6785 32.1918C32.6866 32.1466 32.6944 32.1089 32.7025 32.0788C32.7103 32.0487 32.7144 32.0337 32.7144 32.0337C32.7144 32.0186 32.7184 31.996 32.7263 31.9659C32.7344 31.9357 32.7384 31.9131 32.7384 31.8981C32.7384 31.883 32.7425 31.8604 32.7503 31.8303C32.7584 31.8002 32.7624 31.7776 32.7624 31.7625C32.7624 31.7324 32.7662 31.7023 32.7743 31.6722C32.7743 31.642 32.7743 31.6194 32.7743 31.6044C32.7824 31.5742 32.7862 31.5441 32.7862 31.514C32.7943 31.4538 32.7984 31.3935 32.7984 31.3333C32.8062 31.273 32.8143 31.2128 32.8221 31.1525C32.8302 31.1073 32.8343 31.0396 32.8343 30.9492C32.8343 30.9191 32.8343 30.8889 32.8343 30.8588C32.8421 30.8287 32.8462 30.7986 32.8462 30.7684V29.9777C32.8462 29.8873 32.8421 29.8196 32.8343 29.7744V29.684C32.8343 29.6539 32.8302 29.6388 32.8221 29.6388C32.8221 29.6238 32.8221 29.6087 32.8221 29.5936C32.8221 29.5183 32.8183 29.4581 32.8102 29.4129C32.8102 29.3526 32.8062 29.2924 32.7984 29.2321C32.7903 29.202 32.7862 29.1719 32.7862 29.1418C32.7862 29.1117 32.7824 29.0815 32.7743 29.0514C32.7743 29.0363 32.7703 29.0288 32.7624 29.0288C32.7624 29.0137 32.7624 28.9987 32.7624 28.9836C32.7624 28.9686 32.7584 28.9611 32.7503 28.9611C32.7503 28.946 32.7503 28.9309 32.7503 28.9159C32.7425 28.8857 32.7384 28.8631 32.7384 28.8481C32.7384 28.833 32.7344 28.8104 32.7263 28.7803C32.7184 28.7502 32.7144 28.7276 32.7144 28.7125C32.7144 28.6974 32.7103 28.6749 32.7025 28.6447C32.6944 28.6297 32.6904 28.6146 32.6904 28.5996C32.6904 28.5845 32.6866 28.5694 32.6785 28.5544C32.6625 28.4941 32.6544 28.464 32.6544 28.464C32.6466 28.449 32.6426 28.4414 32.6426 28.4414C32.6426 28.4264 32.6385 28.4113 32.6304 28.3962C32.6226 28.3812 32.6185 28.3661 32.6185 28.351L32.5945 28.3059C32.5945 28.3059 32.5985 28.3209 32.6066 28.351V28.3962C32.6145 28.4113 32.6185 28.4414 32.6185 28.4866C32.6185 28.5016 32.6185 28.5167 32.6185 28.5318C32.6266 28.5318 32.6304 28.5468 32.6304 28.577C32.6304 28.6222 32.6345 28.6598 32.6426 28.6899V28.8029C32.6426 28.833 32.6426 28.8556 32.6426 28.8707C32.6504 28.8857 32.6544 28.9083 32.6544 28.9385C32.6544 29.074 32.6585 29.1794 32.6666 29.2548V29.6162C32.6744 29.6915 32.6785 29.8121 32.6785 29.9777V30.8362ZM32.1873 29.6614C32.1873 29.4656 32.1832 29.2246 32.1752 28.9385C32.1673 28.6523 32.1392 28.3812 32.0914 28.1251C32.0434 27.8691 31.9675 27.6507 31.8636 27.4699C31.7677 27.2741 31.624 27.1762 31.4323 27.1762H31.0008C30.913 27.1913 30.8372 27.2591 30.7732 27.3796C30.7094 27.5 30.6773 27.6431 30.6773 27.8088V32.8922C30.6773 33.0579 30.7094 33.201 30.7732 33.3214C30.8372 33.4419 30.913 33.5022 31.0008 33.5022H31.4323C31.624 33.5022 31.7677 33.4118 31.8636 33.2311C31.9675 33.0503 32.0434 32.8319 32.0914 32.5759C32.1392 32.3048 32.1673 32.0337 32.1752 31.7625C32.1832 31.4764 32.1873 31.2354 32.1873 31.0396V29.6614ZM32.1873 22.2736C32.1873 22.0778 32.1832 21.8368 32.1752 21.5506C32.1673 21.2645 32.1392 20.9934 32.0914 20.7373C32.0434 20.4813 31.9675 20.2629 31.8636 20.0821C31.7677 19.8863 31.624 19.7884 31.4323 19.7884H31.0008C30.913 19.8035 30.8372 19.8712 30.7732 19.9917C30.7094 20.1123 30.6773 20.2553 30.6773 20.421V25.5044C30.6773 25.67 30.7094 25.8131 30.7732 25.9336C30.8372 26.0541 30.913 26.1144 31.0008 26.1144H31.4323C31.624 26.1144 31.7677 26.024 31.8636 25.8433C31.9675 25.6625 32.0434 25.4441 32.0914 25.1881C32.1392 24.9169 32.1673 24.6458 32.1752 24.3747C32.1832 24.0885 32.1873 23.8476 32.1873 23.6518V22.2736ZM32.7025 24.5103C32.7103 24.4802 32.7144 24.4651 32.7144 24.4651C32.7144 24.45 32.7184 24.4274 32.7263 24.3973C32.7344 24.3672 32.7384 24.3446 32.7384 24.3296C32.7384 24.2994 32.7425 24.2693 32.7503 24.2392C32.7584 24.2091 32.7624 24.1865 32.7624 24.1714C32.7624 24.1563 32.7662 24.1337 32.7743 24.1036C32.7743 24.0735 32.7743 24.0509 32.7743 24.0358C32.7824 24.0057 32.7862 23.9756 32.7862 23.9455C32.7943 23.8852 32.7984 23.825 32.7984 23.7647C32.8062 23.7045 32.8143 23.6442 32.8221 23.584C32.8302 23.5388 32.8343 23.471 32.8343 23.3806C32.8343 23.3505 32.8343 23.3204 32.8343 23.2903C32.8421 23.2601 32.8462 23.23 32.8462 23.1999V22.4091C32.8462 22.3188 32.8421 22.251 32.8343 22.2058V22.1155C32.8343 22.0853 32.8302 22.0703 32.8221 22.0703C32.8221 22.0552 32.8221 22.0326 32.8221 22.0025C32.8221 21.9272 32.8143 21.8142 32.7984 21.6636C32.7903 21.6335 32.7862 21.6034 32.7862 21.5732C32.7862 21.5431 32.7824 21.513 32.7743 21.4829C32.7743 21.4678 32.7703 21.4603 32.7624 21.4603C32.7624 21.4452 32.7624 21.4302 32.7624 21.4151C32.7624 21.4 32.7584 21.3925 32.7503 21.3925C32.7503 21.3774 32.7503 21.3624 32.7503 21.3473C32.7425 21.3172 32.7384 21.2946 32.7384 21.2796C32.7384 21.2645 32.7344 21.2419 32.7263 21.2117C32.7184 21.1816 32.7144 21.159 32.7144 21.144C32.7144 21.1289 32.7103 21.1063 32.7025 21.0762C32.6944 21.0611 32.6904 21.0461 32.6904 21.031C32.6904 21.0159 32.6866 21.0009 32.6785 20.9858C32.6625 20.9256 32.6544 20.8955 32.6544 20.8955C32.6466 20.8804 32.6426 20.8728 32.6426 20.8728C32.6426 20.8578 32.6385 20.8427 32.6304 20.8277C32.6226 20.8126 32.6185 20.7976 32.6185 20.7825C32.6104 20.7674 32.6066 20.7524 32.6066 20.7373H32.5945C32.5945 20.7373 32.5985 20.7524 32.6066 20.7825V20.8277C32.6145 20.8427 32.6185 20.8728 32.6185 20.9181C32.6185 20.9331 32.6185 20.9482 32.6185 20.9632C32.6266 20.9632 32.6304 20.9783 32.6304 21.0084C32.6304 21.0536 32.6345 21.0913 32.6426 21.1214V21.2343C32.6426 21.2645 32.6426 21.2871 32.6426 21.3021C32.6504 21.3172 32.6544 21.3398 32.6544 21.3699C32.6544 21.5055 32.6585 21.6109 32.6666 21.6862V22.0477C32.6744 22.123 32.6785 22.2435 32.6785 22.4091V23.2677C32.6704 23.2978 32.6666 23.3355 32.6666 23.3806V23.9003C32.6585 23.9605 32.6544 24.0208 32.6544 24.081C32.6544 24.1262 32.6544 24.1714 32.6544 24.2166C32.6544 24.2467 32.6504 24.2693 32.6426 24.2843C32.6426 24.2994 32.6426 24.322 32.6426 24.3522V24.4877C32.6345 24.5178 32.6304 24.5555 32.6304 24.6006C32.6304 24.6308 32.6266 24.6609 32.6185 24.691C32.6185 24.7212 32.6145 24.7437 32.6066 24.7588V24.804L32.5945 24.8492C32.5945 24.8492 32.6026 24.8417 32.6185 24.8266V24.804L32.6304 24.7814C32.6385 24.7663 32.6426 24.7588 32.6426 24.7588C32.6426 24.7437 32.6466 24.7287 32.6544 24.7136C32.6625 24.6835 32.6704 24.6534 32.6785 24.6232C32.6866 24.5781 32.6944 24.5404 32.7025 24.5103Z" fill="#F4EDE8"/>
<path d="M37.3858 33.1859C37.3858 33.457 37.3977 33.6603 37.4218 33.7959C37.4536 33.9164 37.4855 34.0143 37.5176 34.0896C37.5495 34.1498 37.5776 34.2101 37.6014 34.2703C37.6335 34.3306 37.6494 34.4285 37.6494 34.564H34.3902C34.3421 34.564 34.2984 34.5264 34.2584 34.4511C34.2184 34.3758 34.1985 34.2929 34.1985 34.2026C34.1985 34.2929 34.1785 34.3758 34.1385 34.4511C34.1066 34.5264 34.0626 34.564 34.0067 34.564H33.3835C33.3835 34.4285 33.3957 34.3306 33.4195 34.2703C33.4516 34.2101 33.4834 34.1498 33.5153 34.0896C33.5474 34.0143 33.5753 33.9164 33.5993 33.7959C33.6312 33.6754 33.6471 33.4871 33.6471 33.2311V27.7184C33.6233 27.2515 33.5115 26.9127 33.3117 26.7018C33.3995 26.5963 33.5115 26.5436 33.6471 26.5436V20.0821C33.6471 19.8261 33.6312 19.6378 33.5993 19.5173C33.5753 19.3968 33.5474 19.3064 33.5153 19.2462C33.4834 19.1709 33.4516 19.1031 33.4195 19.0429C33.3957 18.9826 33.3835 18.8847 33.3835 18.7492H34.0186C34.0667 18.7492 34.1105 18.7868 34.1504 18.8621C34.1904 18.9224 34.2104 19.0052 34.2104 19.1106C34.2104 18.8697 34.2743 18.7492 34.4021 18.7492H37.6494C37.6494 18.8847 37.6335 18.9826 37.6014 19.0429C37.5776 19.1031 37.5495 19.1709 37.5176 19.2462C37.4855 19.3064 37.4536 19.4044 37.4218 19.5399C37.3977 19.6604 37.3858 19.8562 37.3858 20.1273V23.1321C37.1061 23.1321 36.8904 23.0342 36.7386 22.8384C36.5949 22.6276 36.487 22.3941 36.4151 22.1381C36.3274 21.8519 36.2793 21.513 36.2715 21.1214V20.421C36.2715 20.2553 36.2393 20.1123 36.1756 19.9917C36.1116 19.8712 36.0357 19.8035 35.948 19.7884H35.0852C34.9972 19.8035 34.9213 19.8712 34.8573 19.9917C34.7936 20.1123 34.7615 20.2553 34.7615 20.421V25.5044C34.7615 25.67 34.7936 25.8131 34.8573 25.9336C34.9213 26.0541 34.9972 26.1144 35.0852 26.1144H35.169C35.257 26.1144 35.3288 26.0541 35.3847 25.9336C35.4487 25.8131 35.4806 25.67 35.4806 25.5044V25.4818C35.4886 25.2558 35.5205 25.06 35.5764 24.8944C35.6242 24.7437 35.6963 24.6082 35.7922 24.4877C35.888 24.3672 36.0276 24.3069 36.2115 24.3069V28.9836C36.0276 28.9836 35.888 28.9234 35.7922 28.8029C35.6963 28.6824 35.6242 28.5468 35.5764 28.3962C35.5205 28.2305 35.4886 28.0347 35.4806 27.8088C35.4806 27.6431 35.4487 27.5 35.3847 27.3796C35.3288 27.2591 35.257 27.1913 35.169 27.1762H35.0852C34.9972 27.1913 34.9213 27.2591 34.8573 27.3796C34.7936 27.5 34.7615 27.6431 34.7615 27.8088V32.8922C34.7615 33.0579 34.7936 33.201 34.8573 33.3214C34.9213 33.4419 34.9972 33.5022 35.0852 33.5022H35.948C36.0357 33.5022 36.1116 33.4419 36.1756 33.3214C36.2393 33.201 36.2715 33.0579 36.2715 32.8922V32.1692C36.2793 31.7927 36.3274 31.4613 36.4151 31.1751C36.487 30.9191 36.5949 30.6856 36.7386 30.4748C36.8904 30.2639 37.1061 30.1585 37.3858 30.1585V33.1859ZM34.2943 25.5947C34.2943 25.5194 34.2903 25.4366 34.2822 25.3462C34.2822 25.2558 34.2822 25.1655 34.2822 25.0751V24.5781C34.2743 24.2467 34.2703 23.9304 34.2703 23.6292C34.2703 23.328 34.2663 23.0418 34.2584 22.7706C34.2503 22.6502 34.2463 22.5297 34.2463 22.4091C34.2463 22.2887 34.2422 22.1757 34.2344 22.0703C34.2344 21.9498 34.2303 21.8443 34.2225 21.754C34.2225 21.6636 34.2225 21.5808 34.2225 21.5055C34.2225 21.4302 34.2184 21.3624 34.2104 21.3021C34.2104 21.2419 34.2104 21.1891 34.2104 21.144V21.031C34.2025 21.031 34.1985 21.0385 34.1985 21.0536V21.144C34.1985 21.1891 34.1944 21.2419 34.1863 21.3021C34.1863 21.3624 34.1863 21.4302 34.1863 21.5055C34.1863 21.5808 34.1825 21.6636 34.1744 21.754C34.1744 21.8443 34.1744 21.9498 34.1744 22.0703C34.1664 22.1757 34.1625 22.2887 34.1625 22.4091C34.1625 22.5297 34.1585 22.6502 34.1504 22.7706C34.1426 23.0418 34.1385 23.328 34.1385 23.6292C34.1385 23.9304 34.1345 24.2467 34.1266 24.5781V25.0751C34.1266 25.1655 34.1226 25.2558 34.1145 25.3462C34.1145 25.4366 34.1145 25.5194 34.1145 25.5947V27.6958C34.1145 27.8163 34.1185 27.9067 34.1266 27.967V28.7125C34.1266 28.8782 34.1266 29.0439 34.1266 29.2095C34.1345 29.3602 34.1385 29.5108 34.1385 29.6614C34.1385 29.8271 34.1385 29.9777 34.1385 30.1133C34.1464 30.2488 34.1504 30.3844 34.1504 30.5199C34.1585 30.6555 34.1625 30.7835 34.1625 30.904C34.1625 31.0095 34.1664 31.1224 34.1744 31.2429C34.1744 31.3483 34.1744 31.4462 34.1744 31.5366C34.1825 31.627 34.1863 31.7098 34.1863 31.7851C34.1863 31.8604 34.1863 31.9357 34.1863 32.0111C34.1944 32.0713 34.1985 32.1165 34.1985 32.1466V32.2596C34.1985 32.2746 34.2025 32.2821 34.2104 32.2821V32.1466C34.2104 32.1165 34.2104 32.0713 34.2104 32.0111C34.2184 31.9357 34.2225 31.8604 34.2225 31.7851C34.2225 31.7098 34.2225 31.627 34.2225 31.5366C34.2303 31.4462 34.2344 31.3483 34.2344 31.2429C34.2422 31.1224 34.2463 31.0095 34.2463 30.904C34.2463 30.7835 34.2503 30.6555 34.2584 30.5199C34.2584 30.3844 34.2584 30.2488 34.2584 30.1133C34.2663 29.9777 34.2703 29.8271 34.2703 29.6614C34.2703 29.5108 34.2703 29.3602 34.2703 29.2095C34.2784 29.0439 34.2822 28.8782 34.2822 28.7125V28.2155C34.2822 28.095 34.2862 28.0121 34.2943 27.967V25.5947Z" fill="#F4EDE8"/>
<path d="M42.2062 35.5129C42.2939 35.543 42.3539 35.5958 42.3857 35.671C42.4257 35.7464 42.4538 35.8217 42.4697 35.897C42.4856 35.9874 42.4937 36.0853 42.4937 36.1907C42.238 36.1907 41.9985 36.1305 41.7747 36.0099C41.5511 35.8895 41.3513 35.6936 41.1757 35.4226C41.0078 35.1514 40.872 34.7975 40.7683 34.3607C40.6724 33.9239 40.6244 33.3892 40.6244 32.7566V29.6614C40.6244 29.4656 40.6203 29.2246 40.6125 28.9385C40.6044 28.6523 40.5765 28.3812 40.5285 28.1251C40.4807 27.8691 40.4048 27.6507 40.3009 27.4699C40.205 27.2741 40.0613 27.1762 39.8696 27.1762H39.3782C39.3063 27.2063 39.2424 27.2817 39.1865 27.4022C39.1387 27.5076 39.1146 27.6356 39.1146 27.7862V33.1859C39.1146 33.457 39.1265 33.6603 39.1505 33.7959C39.1824 33.9164 39.2145 34.0143 39.2464 34.0896C39.2783 34.1498 39.3064 34.2101 39.3304 34.2703C39.3622 34.3306 39.3782 34.4285 39.3782 34.564H38.7431C38.6953 34.564 38.6513 34.5264 38.6113 34.4511C38.5713 34.3758 38.5514 34.2929 38.5514 34.2026C38.5514 34.2929 38.5314 34.3758 38.4914 34.4511C38.4596 34.5264 38.4155 34.564 38.3596 34.564H37.7367C37.7367 34.4285 37.7486 34.3306 37.7726 34.2703C37.8045 34.2101 37.8366 34.1498 37.8685 34.0896C37.9003 34.0143 37.9284 33.9164 37.9522 33.7959C37.9843 33.6754 38.0002 33.4871 38.0002 33.2311V27.7184C37.9762 27.2515 37.8644 26.9127 37.6646 26.7018C37.7526 26.5963 37.8644 26.5436 38.0002 26.5436V20.0821C38.0002 19.8261 37.9843 19.6378 37.9522 19.5173C37.9284 19.3968 37.9003 19.3064 37.8685 19.2462C37.8366 19.1709 37.8045 19.1031 37.7726 19.0429C37.7486 18.9826 37.7367 18.8847 37.7367 18.7492H38.3718C38.4196 18.7492 38.4636 18.7868 38.5036 18.8621C38.5435 18.9224 38.5635 19.0052 38.5635 19.1106C38.5635 18.8697 38.6272 18.7492 38.7552 18.7492H39.8815C40.1372 18.7492 40.3767 18.8395 40.6003 19.0203C40.8242 19.201 41.0199 19.4495 41.1876 19.7658C41.3553 20.0671 41.4871 20.4286 41.5829 20.8503C41.6788 21.272 41.7309 21.7163 41.7387 22.1832V23.6518C41.7387 24.2843 41.6588 24.8643 41.4992 25.3914C41.3394 25.9186 41.1236 26.3403 40.852 26.6566C41.1236 26.9578 41.3394 27.3796 41.4992 27.9218C41.6588 28.449 41.7387 29.0288 41.7387 29.6614V32.6662C41.7387 32.9825 41.7387 33.3063 41.7387 33.6377C41.7468 33.954 41.7668 34.2477 41.7987 34.5188C41.8306 34.7749 41.8786 34.9933 41.9426 35.174C42.0063 35.3548 42.0944 35.4677 42.2062 35.5129ZM41.1158 23.2677C41.1077 23.2978 41.1036 23.3355 41.1036 23.3806V23.9003C41.0958 23.9605 41.0918 24.0208 41.0918 24.081C41.0918 24.1262 41.0918 24.1714 41.0918 24.2166C41.0918 24.2467 41.0877 24.2693 41.0796 24.2843C41.0796 24.2994 41.0796 24.322 41.0796 24.3522V24.4877C41.0718 24.5178 41.0677 24.5555 41.0677 24.6006C41.0677 24.6308 41.0637 24.6609 41.0558 24.691C41.0558 24.7212 41.0518 24.7437 41.0437 24.7588V24.804L41.0318 24.8492C41.0318 24.8492 41.0399 24.8417 41.0558 24.8266V24.804L41.0677 24.7814C41.0758 24.7663 41.0796 24.7588 41.0796 24.7588C41.0796 24.7437 41.0837 24.7287 41.0918 24.7136C41.0996 24.6835 41.1077 24.6534 41.1158 24.6232C41.1236 24.5781 41.1317 24.5404 41.1396 24.5103C41.1477 24.4802 41.1517 24.4651 41.1517 24.4651C41.1517 24.45 41.1557 24.4274 41.1636 24.3973C41.1717 24.3672 41.1757 24.3446 41.1757 24.3296C41.1757 24.2994 41.1795 24.2693 41.1876 24.2392C41.1955 24.2091 41.1995 24.1865 41.1995 24.1714C41.1995 24.1563 41.2036 24.1337 41.2116 24.1036C41.2116 24.0735 41.2116 24.0509 41.2116 24.0358C41.2195 24.0057 41.2235 23.9756 41.2235 23.9455C41.2316 23.8852 41.2354 23.825 41.2354 23.7647C41.2435 23.7045 41.2516 23.6442 41.2594 23.584C41.2675 23.5388 41.2716 23.471 41.2716 23.3806C41.2716 23.3505 41.2716 23.3204 41.2716 23.2903C41.2794 23.2601 41.2835 23.23 41.2835 23.1999V22.4091C41.2835 22.3188 41.2794 22.251 41.2716 22.2058V22.1155C41.2716 22.0853 41.2675 22.0703 41.2594 22.0703C41.2594 22.0552 41.2594 22.0326 41.2594 22.0025C41.2594 21.9272 41.2516 21.8142 41.2354 21.6636C41.2276 21.6335 41.2235 21.6034 41.2235 21.5732C41.2235 21.5431 41.2195 21.513 41.2116 21.4829C41.2116 21.4678 41.2076 21.4603 41.1995 21.4603C41.1995 21.4452 41.1995 21.4302 41.1995 21.4151C41.1995 21.4 41.1955 21.3925 41.1876 21.3925C41.1876 21.3774 41.1876 21.3624 41.1876 21.3473C41.1795 21.3172 41.1757 21.2946 41.1757 21.2796C41.1757 21.2645 41.1717 21.2419 41.1636 21.2117C41.1557 21.1816 41.1517 21.159 41.1517 21.144C41.1517 21.1289 41.1477 21.1063 41.1396 21.0762C41.1317 21.0611 41.1277 21.0461 41.1277 21.031C41.1277 21.0159 41.1236 21.0009 41.1158 20.9858C41.0996 20.9256 41.0918 20.8955 41.0918 20.8955C41.0837 20.8804 41.0796 20.8728 41.0796 20.8728C41.0796 20.8578 41.0758 20.8427 41.0677 20.8277C41.0599 20.8126 41.0558 20.7976 41.0558 20.7825C41.0478 20.7674 41.0437 20.7524 41.0437 20.7373H41.0318C41.0318 20.7373 41.0359 20.7524 41.0437 20.7825V20.8277C41.0518 20.8427 41.0558 20.8728 41.0558 20.9181C41.0558 20.9331 41.0558 20.9482 41.0558 20.9632C41.0637 20.9632 41.0677 20.9783 41.0677 21.0084C41.0677 21.0536 41.0718 21.0913 41.0796 21.1214V21.2343C41.0796 21.2645 41.0796 21.2871 41.0796 21.3021C41.0877 21.3172 41.0918 21.3398 41.0918 21.3699C41.0918 21.5055 41.0958 21.6109 41.1036 21.6862V22.0477C41.1117 22.123 41.1158 22.2435 41.1158 22.4091V23.2677ZM38.6472 25.5947C38.6472 25.5194 38.6432 25.4366 38.6353 25.3462C38.6353 25.2558 38.6353 25.1655 38.6353 25.0751V24.5781C38.6272 24.2467 38.6234 23.9304 38.6234 23.6292C38.6234 23.328 38.6194 23.0418 38.6113 22.7706C38.6035 22.6502 38.5994 22.5297 38.5994 22.4091C38.5994 22.2887 38.5954 22.1757 38.5873 22.0703C38.5873 21.9498 38.5835 21.8443 38.5754 21.754C38.5754 21.6636 38.5754 21.5808 38.5754 21.5055C38.5754 21.4302 38.5713 21.3624 38.5635 21.3021C38.5635 21.2419 38.5635 21.1891 38.5635 21.144V21.031C38.5554 21.031 38.5514 21.0385 38.5514 21.0536V21.144C38.5514 21.1891 38.5473 21.2419 38.5395 21.3021C38.5395 21.3624 38.5395 21.4302 38.5395 21.5055C38.5395 21.5808 38.5354 21.6636 38.5276 21.754C38.5276 21.8443 38.5276 21.9498 38.5276 22.0703C38.5195 22.1757 38.5155 22.2887 38.5155 22.4091C38.5155 22.5297 38.5114 22.6502 38.5036 22.7706C38.4955 23.0418 38.4914 23.328 38.4914 23.6292C38.4914 23.9304 38.4876 24.2467 38.4795 24.5781V25.0751C38.4795 25.1655 38.4755 25.2558 38.4676 25.3462C38.4676 25.4366 38.4676 25.5194 38.4676 25.5947V27.6958C38.4676 27.8163 38.4714 27.9067 38.4795 27.967V28.7125C38.4795 28.8782 38.4795 29.0439 38.4795 29.2095C38.4876 29.3602 38.4914 29.5108 38.4914 29.6614C38.4914 29.8271 38.4914 29.9777 38.4914 30.1133C38.4995 30.2488 38.5036 30.3844 38.5036 30.5199C38.5114 30.6555 38.5155 30.7835 38.5155 30.904C38.5155 31.0095 38.5195 31.1224 38.5276 31.2429C38.5276 31.3484 38.5276 31.4462 38.5276 31.5366C38.5354 31.627 38.5395 31.7098 38.5395 31.7851C38.5395 31.8604 38.5395 31.9357 38.5395 32.0111C38.5473 32.0713 38.5514 32.1165 38.5514 32.1466V32.2596C38.5514 32.2746 38.5554 32.2821 38.5635 32.2821V32.1466C38.5635 32.1165 38.5635 32.0713 38.5635 32.0111C38.5713 31.9357 38.5754 31.8604 38.5754 31.7851C38.5754 31.7098 38.5754 31.627 38.5754 31.5366C38.5835 31.4462 38.5873 31.3484 38.5873 31.2429C38.5954 31.1224 38.5994 31.0095 38.5994 30.904C38.5994 30.7835 38.6035 30.6555 38.6113 30.5199C38.6113 30.3844 38.6113 30.2488 38.6113 30.1133C38.6194 29.9777 38.6234 29.8271 38.6234 29.6614C38.6234 29.5108 38.6234 29.3602 38.6234 29.2095C38.6313 29.0439 38.6353 28.8782 38.6353 28.7125V28.2155C38.6353 28.095 38.6394 28.0121 38.6472 27.967V25.5947ZM40.6244 22.2736C40.6244 22.0778 40.6203 21.8368 40.6125 21.5506C40.6044 21.2645 40.5765 20.9934 40.5285 20.7373C40.4807 20.4813 40.4048 20.2629 40.3009 20.0821C40.205 19.8863 40.0613 19.7884 39.8696 19.7884H39.4381C39.3504 19.8035 39.2745 19.8712 39.2105 19.9917C39.1465 20.1123 39.1146 20.2553 39.1146 20.421V25.5044C39.1146 25.67 39.1465 25.8131 39.2105 25.9336C39.2745 26.0541 39.3504 26.1144 39.4381 26.1144H39.8696C40.0613 26.1144 40.205 26.024 40.3009 25.8433C40.4048 25.6625 40.4807 25.4441 40.5285 25.1881C40.5765 24.9169 40.6044 24.6458 40.6125 24.3747C40.6203 24.0885 40.6244 23.8476 40.6244 23.6518V22.2736ZM41.4271 34.6544C41.4271 34.6544 41.4233 34.6469 41.4153 34.6318L41.4034 34.6092C41.3953 34.5791 41.3872 34.549 41.3793 34.5188C41.3793 34.4887 41.3712 34.4586 41.3553 34.4285C41.3475 34.3833 41.3394 34.3381 41.3313 34.2929C41.3234 34.2327 41.3154 34.1649 41.3075 34.0896C41.2913 33.939 41.2835 33.7959 41.2835 33.6603C41.2754 33.585 41.2716 33.5097 41.2716 33.4344C41.2716 33.344 41.2716 33.2461 41.2716 33.1407V31.9433C41.2716 31.8379 41.2716 31.7324 41.2716 31.627C41.2716 31.5216 41.2754 31.4086 41.2835 31.2881C41.2835 31.1827 41.2835 31.0772 41.2835 30.9718C41.2835 30.8664 41.2794 30.7609 41.2716 30.6555V30.3392C41.2716 30.1886 41.2675 30.0831 41.2594 30.0229C41.2594 29.9175 41.2554 29.8196 41.2476 29.7292C41.2476 29.6238 41.2435 29.5258 41.2354 29.4355C41.2195 29.2246 41.2036 29.0439 41.1876 28.8933C41.1795 28.818 41.1717 28.7502 41.1636 28.6899C41.1557 28.6146 41.1436 28.5393 41.1277 28.464C41.1117 28.3887 41.0996 28.3284 41.0918 28.2833C41.0837 28.2381 41.0718 28.1929 41.0558 28.1477C41.0399 28.1025 41.0278 28.0649 41.0199 28.0347C41.0118 28.0046 41.0037 27.9745 40.9959 27.9444C40.9878 27.9444 40.98 27.9369 40.9719 27.9218C40.964 27.9218 40.96 27.9143 40.96 27.8992L40.9719 27.9218C40.9719 27.9369 40.9759 27.9519 40.9838 27.967C40.9838 27.982 40.9838 27.9971 40.9838 28.0121C40.9919 28.0121 40.9959 28.0272 40.9959 28.0573C41.0037 28.0724 41.0078 28.0875 41.0078 28.1025C41.0078 28.1176 41.0118 28.1402 41.0199 28.1703C41.0278 28.2305 41.0399 28.336 41.0558 28.4866C41.0637 28.5619 41.0677 28.6372 41.0677 28.7125C41.0758 28.7878 41.0837 28.8631 41.0918 28.9385C41.0918 29.0137 41.0918 29.0966 41.0918 29.187C41.0996 29.2623 41.1036 29.3526 41.1036 29.4581V32.2596C41.1036 32.3198 41.1036 32.3725 41.1036 32.4177C41.1117 32.4629 41.1158 32.5156 41.1158 32.5759C41.1158 32.6813 41.1158 32.7867 41.1158 32.8922C41.1236 32.9825 41.1317 33.0729 41.1396 33.1633C41.1477 33.2536 41.1517 33.344 41.1517 33.4344C41.1595 33.5248 41.1676 33.6076 41.1757 33.6829C41.1917 33.7733 41.2036 33.8561 41.2116 33.9314C41.2195 33.9917 41.2316 34.0595 41.2476 34.1348C41.2635 34.2101 41.2754 34.2703 41.2835 34.3155C41.2913 34.3607 41.3035 34.4059 41.3194 34.4511L41.3434 34.4962C41.3513 34.5113 41.3553 34.5264 41.3553 34.5414C41.3553 34.5414 41.3594 34.549 41.3674 34.564L41.4153 34.6544H41.4271Z" fill="#F4EDE8"/>
<path d="M44.9345 25.8012C45.289 25.8012 45.5764 26.3431 45.5764 27.0116C45.5764 27.68 45.289 28.2219 44.9345 28.2219C44.5799 28.2219 44.2925 27.68 44.2925 27.0116C44.2925 26.3431 44.5799 25.8012 44.9345 25.8012Z" fill="#999591"/>
<path d="M4.06551 25.8012C4.42003 25.8012 4.70743 26.3431 4.70743 27.0116C4.70743 27.68 4.42003 28.2219 4.06551 28.2219C3.71098 28.2219 3.42358 27.68 3.42358 27.0116C3.42358 26.3431 3.71098 25.8012 4.06551 25.8012Z" fill="#999591"/>
</svg>
